<?xml version="1.0" encoding="UTF-8" standalone="no"?>
<!-- Created with Inkscape (http://www.inkscape.org/) -->

<svg
   width="120"
   height="60"
   viewBox="0 0 31.750097 15.875"
   version="1.1"
   id="svg1"
   inkscape:version="1.3.2 (1:1.3.2+202311252150+091e20ef0f)"
   sodipodi:docname="bgart1.svg"
   xmlns:inkscape="http://www.inkscape.org/namespaces/inkscape"
   xmlns:sodipodi="http://sodipodi.sourceforge.net/DTD/sodipodi-0.dtd"
   xmlns="http://www.w3.org/2000/svg"
   xmlns:svg="http://www.w3.org/2000/svg">
  <sodipodi:namedview
     id="namedview1"
     pagecolor="#ffffff"
     bordercolor="#000000"
     borderopacity="0.25"
     inkscape:showpageshadow="2"
     inkscape:pageopacity="0.0"
     inkscape:pagecheckerboard="0"
     inkscape:deskcolor="#d1d1d1"
     inkscape:document-units="mm"
     inkscape:zoom="5.6291665"
     inkscape:cx="49.563288"
     inkscape:cy="65.729091"
     inkscape:window-width="1920"
     inkscape:window-height="1016"
     inkscape:window-x="0"
     inkscape:window-y="0"
     inkscape:window-maximized="1"
     inkscape:current-layer="layer1" />
  <defs
     id="defs1" />
  <g
     inkscape:label="Layer 1"
     inkscape:groupmode="layer"
     id="layer1">
    <g
       id="g29"
       transform="matrix(0.61943508,0,0,0.61943508,-0.00763157,-0.01060525)"
       style="fill:none;stroke:#666666;stroke-width:0.1;stroke-dasharray:none">
      <rect
         style="fill:none;stroke:#666666;stroke-width:0.1;stroke-dasharray:none"
         id="rect1"
         width="3.3860159"
         height="1.0610754"
         x="0.94550484"
         y="0.78993273"
         ry="0.53053772"
         transform="rotate(18.540099)" />
      <rect
         style="fill:none;stroke:#666666;stroke-width:0.1;stroke-dasharray:none"
         id="rect5"
         width="3.3860159"
         height="1.0610754"
         x="-1.1241057"
         y="4.3304973"
         ry="0.53053772"
         transform="rotate(-18.49712)" />
      <rect
         style="fill:none;stroke:#666666;stroke-width:0.1;stroke-dasharray:none"
         id="rect6"
         width="3.3860159"
         height="1.0610754"
         x="2.0610011"
         y="5.4732943"
         ry="0.53053772"
         transform="rotate(14.919409)" />
      <rect
         style="fill:none;stroke:#666666;stroke-width:0.1;stroke-dasharray:none"
         id="rect7"
         width="3.3860159"
         height="1.0610754"
         x="3.4188585"
         y="7.288033"
         ry="0.53053772"
         transform="rotate(20.300706)" />
      <rect
         style="fill:none;stroke:#666666;stroke-width:0.1;stroke-dasharray:none"
         id="rect8"
         width="3.3860159"
         height="1.0610754"
         x="-2.4429278"
         y="11.136871"
         ry="0.53053772"
         transform="rotate(-13.668042)" />
      <rect
         style="fill:none;stroke:#666666;stroke-width:0.1;stroke-dasharray:none"
         id="rect9"
         width="3.3860159"
         height="1.0610754"
         x="-4.0137601"
         y="13.214741"
         ry="0.53053772"
         transform="rotate(-18.171853)" />
      <rect
         style="fill:none;stroke:#666666;stroke-width:0.1;stroke-dasharray:none"
         id="rect10"
         width="3.3860159"
         height="1.2343389"
         x="3.663197"
         y="-0.37505373"
         ry="0.61716944"
         transform="rotate(8.8072592)" />
      <rect
         style="fill:none;stroke:#666666;stroke-width:0.100001;stroke-dasharray:none"
         id="rect11"
         width="4.2170324"
         height="1.5111957"
         x="4.0855317"
         y="3.3633749"
         ry="0.75559783"
         transform="matrix(0.99228984,-0.12393898,0.12832624,0.99173201,0,0)" />
      <rect
         style="fill:none;stroke:#666666;stroke-width:0.1;stroke-dasharray:none"
         id="rect12"
         width="3.3860159"
         height="1.2343389"
         x="5.0859399"
         y="3.5610611"
         ry="0.61716944"
         transform="rotate(12.441585)" />
      <rect
         style="fill:none;stroke:#666666;stroke-width:0.1;stroke-dasharray:none"
         id="rect13"
         width="3.3860159"
         height="1.2343389"
         x="2.4968927"
         y="8.3484383"
         ry="0.61716944"
         transform="rotate(-10.782348)" />
      <rect
         style="fill:none;stroke:#666666;stroke-width:0.100041;stroke-dasharray:none"
         id="rect14"
         width="4.2750211"
         height="1.5153538"
         x="-0.74407053"
         y="11.34856"
         ry="0.7576769"
         transform="matrix(0.89509221,-0.44588109,0.48166617,0.87635478,0,0)" />
      <rect
         style="fill:none;stroke:#666666;stroke-width:0.1;stroke-dasharray:none"
         id="rect15"
         width="3.3860159"
         height="1.2343389"
         x="8.8967342"
         y="8.3860435"
         ry="0.61716944"
         transform="rotate(25.334219)" />
      <rect
         style="fill:none;stroke:#666666;stroke-width:0.1;stroke-dasharray:none"
         id="rect16"
         width="3.3860159"
         height="1.2343389"
         x="4.1135435"
         y="14.214737"
         ry="0.61716944" />
    </g>
    <g
       id="g30"
       transform="matrix(0.61943508,0,0,0.61943508,-8.8290993,6.811367)"
       style="fill:none;stroke:#666666;stroke-width:0.264584;stroke-dasharray:none">
      <rect
         style="fill:none;stroke:#666666;stroke-width:0.1;stroke-dasharray:none"
         id="rect17"
         width="3.3860159"
         height="1.0610754"
         x="-31.188322"
         y="1.5710112"
         ry="0.53053772"
         transform="scale(-1,1)" />
      <rect
         style="fill:none;stroke:#666666;stroke-width:0.1;stroke-dasharray:none"
         id="rect18"
         width="3.3860159"
         height="1.0610754"
         x="-31.127886"
         y="-5.3550372"
         ry="0.53053772"
         transform="matrix(-0.95176066,-0.30684139,-0.30684139,0.95176066,0,0)" />
      <rect
         style="fill:none;stroke:#666666;stroke-width:0.1;stroke-dasharray:none"
         id="rect19"
         width="3.3860159"
         height="1.0610754"
         x="-28.593243"
         y="13.336696"
         ry="0.53053772"
         transform="matrix(-0.96889296,0.24748018,0.24748018,0.96889296,0,0)" />
      <rect
         style="fill:none;stroke:#666666;stroke-width:0.1;stroke-dasharray:none"
         id="rect20"
         width="3.3860159"
         height="1.0610754"
         x="-31.832054"
         y="6.1577487"
         ry="0.53053772"
         transform="matrix(-0.99668785,-0.08132233,-0.08132233,0.99668785,0,0)" />
      <rect
         style="fill:none;stroke:#666666;stroke-width:0.1;stroke-dasharray:none"
         id="rect21"
         width="3.3860159"
         height="1.0610754"
         x="-33.333885"
         y="-0.77547002"
         ry="0.53053772"
         transform="matrix(-0.92933185,-0.36924561,-0.36924561,0.92933185,0,0)" />
      <rect
         style="fill:none;stroke:#666666;stroke-width:0.1;stroke-dasharray:none"
         id="rect22"
         width="3.3860159"
         height="1.0610754"
         x="-34.253239"
         y="-0.81966352"
         ry="0.53053772"
         transform="matrix(-0.90203631,-0.43166016,-0.43166016,0.90203631,0,0)" />
      <rect
         style="fill:none;stroke:#666666;stroke-width:0.1;stroke-dasharray:none"
         id="rect23"
         width="3.3860159"
         height="1.2343389"
         x="-28.032228"
         y="0.25196967"
         ry="0.61716944"
         transform="scale(-1,1)" />
      <rect
         style="fill:none;stroke:#666666;stroke-width:0.100011;stroke-dasharray:none"
         id="rect24"
         width="4.6444149"
         height="1.6088318"
         x="-25.78808"
         y="6.7966871"
         ry="0.80441588"
         transform="matrix(-0.98387421,0.17886179,0.19886137,0.98002763,0,0)" />
      <rect
         style="fill:none;stroke:#666666;stroke-width:0.1;stroke-dasharray:none"
         id="rect25"
         width="3.3860159"
         height="1.2343389"
         x="-28.032228"
         y="4.980155"
         ry="0.61716944"
         transform="scale(-1,1)" />
      <rect
         style="fill:none;stroke:#666666;stroke-width:0.1;stroke-dasharray:none"
         id="rect26"
         width="3.3860159"
         height="1.2343389"
         x="-27.81415"
         y="-2.8728461"
         ry="0.61716944"
         transform="matrix(-0.92997265,-0.36762872,-0.36762872,0.92997265,0,0)" />
      <rect
         style="fill:none;stroke:#666666;stroke-width:0.100045;stroke-dasharray:none"
         id="rect27"
         width="4.2321353"
         height="1.4725945"
         x="-20.580198"
         y="17.146608"
         ry="0.73629725"
         transform="matrix(-0.94008532,0.34093929,0.3803886,0.92482675,0,0)" />
      <rect
         style="fill:none;stroke:#666666;stroke-width:0.1;stroke-dasharray:none"
         id="rect28"
         width="3.3860159"
         height="1.2343389"
         x="-21.899384"
         y="18.833158"
         ry="0.61716944"
         transform="matrix(-0.95075518,0.30994289,0.30994289,0.95075518,0,0)" />
      <rect
         style="fill:none;stroke:#666666;stroke-width:0.1;stroke-dasharray:none"
         id="rect29"
         width="3.3860159"
         height="1.2343389"
         x="-27.545183"
         y="13.920602"
         ry="0.61716944"
         transform="scale(-1,1)" />
    </g>
    <g
       id="g42"
       transform="matrix(0.61943508,0,0,0.61943508,0.33615013,6.424152)"
       style="fill:none;stroke:#666666;stroke-width:0.1;stroke-dasharray:none">
      <rect
         style="fill:none;stroke:#666666;stroke-width:0.1;stroke-dasharray:none"
         id="rect30"
         width="3.3860159"
         height="1.0610754"
         x="0.94550484"
         y="0.78993273"
         ry="0.53053772"
         transform="rotate(18.540099)" />
      <rect
         style="fill:none;stroke:#666666;stroke-width:0.1;stroke-dasharray:none"
         id="rect31"
         width="3.3860159"
         height="1.0610754"
         x="-1.1241057"
         y="4.3304973"
         ry="0.53053772"
         transform="rotate(-18.49712)" />
      <rect
         style="fill:none;stroke:#666666;stroke-width:0.1;stroke-dasharray:none"
         id="rect32"
         width="3.3860159"
         height="1.0610754"
         x="2.0610011"
         y="5.4732943"
         ry="0.53053772"
         transform="rotate(14.919409)" />
      <rect
         style="fill:none;stroke:#666666;stroke-width:0.1;stroke-dasharray:none"
         id="rect33"
         width="3.3860159"
         height="1.0610754"
         x="3.4188585"
         y="7.288033"
         ry="0.53053772"
         transform="rotate(20.300706)" />
      <rect
         style="fill:none;stroke:#666666;stroke-width:0.1;stroke-dasharray:none"
         id="rect34"
         width="3.3860159"
         height="1.0610754"
         x="-2.4429278"
         y="11.136871"
         ry="0.53053772"
         transform="rotate(-13.668042)" />
      <rect
         style="fill:none;stroke:#666666;stroke-width:0.1;stroke-dasharray:none"
         id="rect35"
         width="3.3860159"
         height="1.0610754"
         x="-4.0137601"
         y="13.214741"
         ry="0.53053772"
         transform="rotate(-18.171853)" />
      <rect
         style="fill:none;stroke:#666666;stroke-width:0.1;stroke-dasharray:none"
         id="rect36"
         width="3.3860159"
         height="1.2343389"
         x="3.663197"
         y="-0.37505373"
         ry="0.61716944"
         transform="rotate(8.8072592)" />
      <rect
         style="fill:none;stroke:#666666;stroke-width:0.100001;stroke-dasharray:none"
         id="rect37"
         width="4.2170324"
         height="1.5111957"
         x="4.0855317"
         y="3.3633749"
         ry="0.75559783"
         transform="matrix(0.99228984,-0.12393898,0.12832624,0.99173201,0,0)" />
      <rect
         style="fill:none;stroke:#666666;stroke-width:0.1;stroke-dasharray:none"
         id="rect38"
         width="3.3860159"
         height="1.2343389"
         x="5.0859399"
         y="3.5610611"
         ry="0.61716944"
         transform="rotate(12.441585)" />
      <rect
         style="fill:none;stroke:#666666;stroke-width:0.1;stroke-dasharray:none"
         id="rect39"
         width="3.3860159"
         height="1.2343389"
         x="2.4968927"
         y="8.3484383"
         ry="0.61716944"
         transform="rotate(-10.782348)" />
      <rect
         style="fill:none;stroke:#666666;stroke-width:0.100041;stroke-dasharray:none"
         id="rect40"
         width="4.2750211"
         height="1.5153538"
         x="-0.74407053"
         y="11.34856"
         ry="0.7576769"
         transform="matrix(0.89509221,-0.44588109,0.48166617,0.87635478,0,0)" />
      <rect
         style="fill:none;stroke:#666666;stroke-width:0.1;stroke-dasharray:none"
         id="rect41"
         width="3.3860159"
         height="1.2343389"
         x="8.8967342"
         y="8.3860435"
         ry="0.61716944"
         transform="rotate(25.334219)" />
      <rect
         style="fill:none;stroke:#666666;stroke-width:0.1;stroke-dasharray:none"
         id="rect42"
         width="3.3860159"
         height="1.2343389"
         x="4.1135435"
         y="14.214737"
         ry="0.61716944" />
    </g>
    <g
       id="g55"
       transform="matrix(0.61943508,0,0,0.61943508,7.7025908,0.22922429)"
       style="fill:none;stroke:#666666;stroke-width:0.264584;stroke-dasharray:none">
      <rect
         style="fill:none;stroke:#666666;stroke-width:0.1;stroke-dasharray:none"
         id="rect43"
         width="3.3860159"
         height="1.0610754"
         x="-31.188322"
         y="1.5710112"
         ry="0.53053772"
         transform="scale(-1,1)" />
      <rect
         style="fill:none;stroke:#666666;stroke-width:0.1;stroke-dasharray:none"
         id="rect44"
         width="3.3860159"
         height="1.0610754"
         x="-31.127886"
         y="-5.3550372"
         ry="0.53053772"
         transform="matrix(-0.95176066,-0.30684139,-0.30684139,0.95176066,0,0)" />
      <rect
         style="fill:none;stroke:#666666;stroke-width:0.1;stroke-dasharray:none"
         id="rect45"
         width="3.3860159"
         height="1.0610754"
         x="-28.593243"
         y="13.336696"
         ry="0.53053772"
         transform="matrix(-0.96889296,0.24748018,0.24748018,0.96889296,0,0)" />
      <rect
         style="fill:none;stroke:#666666;stroke-width:0.1;stroke-dasharray:none"
         id="rect46"
         width="3.3860159"
         height="1.0610754"
         x="-31.832054"
         y="6.1577487"
         ry="0.53053772"
         transform="matrix(-0.99668785,-0.08132233,-0.08132233,0.99668785,0,0)" />
      <rect
         style="fill:none;stroke:#666666;stroke-width:0.1;stroke-dasharray:none"
         id="rect47"
         width="3.3860159"
         height="1.0610754"
         x="-33.333885"
         y="-0.77547002"
         ry="0.53053772"
         transform="matrix(-0.92933185,-0.36924561,-0.36924561,0.92933185,0,0)" />
      <rect
         style="fill:none;stroke:#666666;stroke-width:0.1;stroke-dasharray:none"
         id="rect48"
         width="3.3860159"
         height="1.0610754"
         x="-34.253239"
         y="-0.81966352"
         ry="0.53053772"
         transform="matrix(-0.90203631,-0.43166016,-0.43166016,0.90203631,0,0)" />
      <rect
         style="fill:none;stroke:#666666;stroke-width:0.1;stroke-dasharray:none"
         id="rect49"
         width="3.3860159"
         height="1.2343389"
         x="-28.032228"
         y="0.25196967"
         ry="0.61716944"
         transform="scale(-1,1)" />
      <rect
         style="fill:none;stroke:#666666;stroke-width:0.100011;stroke-dasharray:none"
         id="rect50"
         width="4.6444149"
         height="1.6088318"
         x="-25.78808"
         y="6.7966871"
         ry="0.80441588"
         transform="matrix(-0.98387421,0.17886179,0.19886137,0.98002763,0,0)" />
      <rect
         style="fill:none;stroke:#666666;stroke-width:0.1;stroke-dasharray:none"
         id="rect51"
         width="3.3860159"
         height="1.2343389"
         x="-28.032228"
         y="4.980155"
         ry="0.61716944"
         transform="scale(-1,1)" />
      <rect
         style="fill:none;stroke:#666666;stroke-width:0.1;stroke-dasharray:none"
         id="rect52"
         width="3.3860159"
         height="1.2343389"
         x="-27.81415"
         y="-2.8728461"
         ry="0.61716944"
         transform="matrix(-0.92997265,-0.36762872,-0.36762872,0.92997265,0,0)" />
      <rect
         style="fill:none;stroke:#666666;stroke-width:0.100045;stroke-dasharray:none"
         id="rect53"
         width="4.2321353"
         height="1.4725945"
         x="-20.580198"
         y="17.146608"
         ry="0.73629725"
         transform="matrix(-0.94008532,0.34093929,0.3803886,0.92482675,0,0)" />
      <rect
         style="fill:none;stroke:#666666;stroke-width:0.1;stroke-dasharray:none"
         id="rect54"
         width="3.3860159"
         height="1.2343389"
         x="-21.899384"
         y="18.833158"
         ry="0.61716944"
         transform="matrix(-0.95075518,0.30994289,0.30994289,0.95075518,0,0)" />
      <rect
         style="fill:none;stroke:#666666;stroke-width:0.1;stroke-dasharray:none"
         id="rect55"
         width="3.3860159"
         height="1.2343389"
         x="-27.545183"
         y="13.920602"
         ry="0.61716944"
         transform="scale(-1,1)" />
      <rect
         style="fill:none;stroke:#666666;stroke-width:0.1;stroke-dasharray:none"
         id="rect146"
         width="3.3860159"
         height="1.0610754"
         x="2.9872973"
         y="3.5797143"
         ry="0.53053772"
         transform="scale(-1,1)" />
      <rect
         style="fill:none;stroke:#666666;stroke-width:0.1;stroke-dasharray:none"
         id="rect147"
         width="3.3860159"
         height="1.0610754"
         x="0.78277111"
         y="7.043262"
         ry="0.53053772"
         transform="matrix(-0.95176066,-0.30684139,-0.30684139,0.95176066,0,0)" />
      <rect
         style="fill:none;stroke:#666666;stroke-width:0.1;stroke-dasharray:none"
         id="rect148"
         width="3.3860159"
         height="1.0610754"
         x="5.0163884"
         y="6.8251252"
         ry="0.53053772"
         transform="matrix(-0.96889296,0.24748018,0.24748018,0.96889296,0,0)" />
      <rect
         style="fill:none;stroke:#666666;stroke-width:0.1;stroke-dasharray:none"
         id="rect149"
         width="3.3860159"
         height="1.0610754"
         x="2.0670183"
         y="10.939039"
         ry="0.53053772"
         transform="matrix(-0.99668785,-0.08132233,-0.08132233,0.99668785,0,0)" />
      <rect
         style="fill:none;stroke:#666666;stroke-width:0.1;stroke-dasharray:none"
         id="rect150"
         width="3.3860159"
         height="1.0610754"
         x="-2.3150985"
         y="13.71048"
         ry="0.53053772"
         transform="matrix(-0.92933185,-0.36924561,-0.36924561,0.92933185,0,0)" />
      <rect
         style="fill:none;stroke:#666666;stroke-width:0.1;stroke-dasharray:none"
         id="rect151"
         width="3.3860159"
         height="1.0610754"
         x="-4.2926664"
         y="15.744514"
         ry="0.53053772"
         transform="matrix(-0.90203631,-0.43166016,-0.43166016,0.90203631,0,0)" />
      <rect
         style="fill:none;stroke:#666666;stroke-width:0.1;stroke-dasharray:none"
         id="rect152"
         width="3.3860159"
         height="1.2343389"
         x="6.1433907"
         y="2.2606728"
         ry="0.61716944"
         transform="scale(-1,1)" />
      <rect
         style="fill:none;stroke:#666666;stroke-width:0.100011;stroke-dasharray:none"
         id="rect153"
         width="4.6444149"
         height="1.6088318"
         x="8.111455"
         y="2.6594279"
         ry="0.80441588"
         transform="matrix(-0.98387421,0.17886179,0.19886137,0.98002763,0,0)" />
      <rect
         style="fill:none;stroke:#666666;stroke-width:0.1;stroke-dasharray:none"
         id="rect154"
         width="3.3860159"
         height="1.2343389"
         x="6.1433907"
         y="6.9888582"
         ry="0.61716944"
         transform="scale(-1,1)" />
      <rect
         style="fill:none;stroke:#666666;stroke-width:0.1;stroke-dasharray:none"
         id="rect155"
         width="3.3860159"
         height="1.2343389"
         x="3.2297843"
         y="11.559132"
         ry="0.61716944"
         transform="matrix(-0.92997265,-0.36762872,-0.36762872,0.92997265,0,0)" />
      <rect
         style="fill:none;stroke:#666666;stroke-width:0.100045;stroke-dasharray:none"
         id="rect156"
         width="4.2321353"
         height="1.4725945"
         x="11.819399"
         y="7.3744078"
         ry="0.73629725"
         transform="matrix(-0.94008532,0.34093929,0.3803886,0.92482675,0,0)" />
      <rect
         style="fill:none;stroke:#666666;stroke-width:0.1;stroke-dasharray:none"
         id="rect157"
         width="3.3860159"
         height="1.2343389"
         x="11.215846"
         y="10.150454"
         ry="0.61716944"
         transform="matrix(-0.95075518,0.30994289,0.30994289,0.95075518,0,0)" />
      <rect
         style="fill:none;stroke:#666666;stroke-width:0.1;stroke-dasharray:none"
         id="rect158"
         width="3.3860159"
         height="1.2343389"
         x="6.6304359"
         y="15.929305"
         ry="0.61716944"
         transform="scale(-1,1)" />
    </g>
    <g
       id="g68"
       transform="matrix(0.61943508,0,0,0.61943508,16.740633,-4.7718954)"
       style="fill:none;stroke:#666666;stroke-width:0.1;stroke-dasharray:none">
      <rect
         style="fill:none;stroke:#666666;stroke-width:0.1;stroke-dasharray:none"
         id="rect56"
         width="3.3860159"
         height="1.0610754"
         x="0.94550484"
         y="0.78993273"
         ry="0.53053772"
         transform="rotate(18.540099)" />
      <rect
         style="fill:none;stroke:#666666;stroke-width:0.1;stroke-dasharray:none"
         id="rect57"
         width="3.3860159"
         height="1.0610754"
         x="-1.1241057"
         y="4.3304973"
         ry="0.53053772"
         transform="rotate(-18.49712)" />
      <rect
         style="fill:none;stroke:#666666;stroke-width:0.1;stroke-dasharray:none"
         id="rect58"
         width="3.3860159"
         height="1.0610754"
         x="2.0610011"
         y="5.4732943"
         ry="0.53053772"
         transform="rotate(14.919409)" />
      <rect
         style="fill:none;stroke:#666666;stroke-width:0.1;stroke-dasharray:none"
         id="rect59"
         width="3.3860159"
         height="1.0610754"
         x="3.4188585"
         y="7.288033"
         ry="0.53053772"
         transform="rotate(20.300706)" />
      <rect
         style="fill:none;stroke:#666666;stroke-width:0.1;stroke-dasharray:none"
         id="rect60"
         width="3.3860159"
         height="1.0610754"
         x="-2.4429278"
         y="11.136871"
         ry="0.53053772"
         transform="rotate(-13.668042)" />
      <rect
         style="fill:none;stroke:#666666;stroke-width:0.1;stroke-dasharray:none"
         id="rect61"
         width="3.3860159"
         height="1.0610754"
         x="-4.0137601"
         y="13.214741"
         ry="0.53053772"
         transform="rotate(-18.171853)" />
      <rect
         style="fill:none;stroke:#666666;stroke-width:0.1;stroke-dasharray:none"
         id="rect62"
         width="3.3860159"
         height="1.2343389"
         x="3.663197"
         y="-0.37505373"
         ry="0.61716944"
         transform="rotate(8.8072592)" />
      <rect
         style="fill:none;stroke:#666666;stroke-width:0.100001;stroke-dasharray:none"
         id="rect63"
         width="4.2170324"
         height="1.5111957"
         x="4.0855317"
         y="3.3633749"
         ry="0.75559783"
         transform="matrix(0.99228984,-0.12393898,0.12832624,0.99173201,0,0)" />
      <rect
         style="fill:none;stroke:#666666;stroke-width:0.1;stroke-dasharray:none"
         id="rect64"
         width="3.3860159"
         height="1.2343389"
         x="5.0859399"
         y="3.5610611"
         ry="0.61716944"
         transform="rotate(12.441585)" />
      <rect
         style="fill:none;stroke:#666666;stroke-width:0.1;stroke-dasharray:none"
         id="rect65"
         width="3.3860159"
         height="1.2343389"
         x="2.4968927"
         y="8.3484383"
         ry="0.61716944"
         transform="rotate(-10.782348)" />
      <rect
         style="fill:none;stroke:#666666;stroke-width:0.100041;stroke-dasharray:none"
         id="rect66"
         width="4.2750211"
         height="1.5153538"
         x="-0.74407053"
         y="11.34856"
         ry="0.7576769"
         transform="matrix(0.89509221,-0.44588109,0.48166617,0.87635478,0,0)" />
      <rect
         style="fill:none;stroke:#666666;stroke-width:0.1;stroke-dasharray:none"
         id="rect67"
         width="3.3860159"
         height="1.2343389"
         x="8.8967342"
         y="8.3860435"
         ry="0.61716944"
         transform="rotate(25.334219)" />
      <rect
         style="fill:none;stroke:#666666;stroke-width:0.1;stroke-dasharray:none"
         id="rect68"
         width="3.3860159"
         height="1.2343389"
         x="4.1135435"
         y="14.214737"
         ry="0.61716944" />
    </g>
    <g
       id="g81"
       transform="matrix(0.61943508,0,0,0.61943508,25.951076,6.1849811)"
       style="fill:none;stroke:#666666;stroke-width:0.1;stroke-dasharray:none">
      <rect
         style="fill:none;stroke:#666666;stroke-width:0.1;stroke-dasharray:none"
         id="rect69"
         width="3.3860159"
         height="1.0610754"
         x="0.94550484"
         y="0.78993273"
         ry="0.53053772"
         transform="rotate(18.540099)" />
      <rect
         style="fill:none;stroke:#666666;stroke-width:0.1;stroke-dasharray:none"
         id="rect70"
         width="3.3860159"
         height="1.0610754"
         x="-1.1241057"
         y="4.3304973"
         ry="0.53053772"
         transform="rotate(-18.49712)" />
      <rect
         style="fill:none;stroke:#666666;stroke-width:0.1;stroke-dasharray:none"
         id="rect71"
         width="3.3860159"
         height="1.0610754"
         x="2.0610011"
         y="5.4732943"
         ry="0.53053772"
         transform="rotate(14.919409)" />
      <rect
         style="fill:none;stroke:#666666;stroke-width:0.1;stroke-dasharray:none"
         id="rect72"
         width="3.3860159"
         height="1.0610754"
         x="3.4188585"
         y="7.288033"
         ry="0.53053772"
         transform="rotate(20.300706)" />
      <rect
         style="fill:none;stroke:#666666;stroke-width:0.1;stroke-dasharray:none"
         id="rect73"
         width="3.3860159"
         height="1.0610754"
         x="-2.4429278"
         y="11.136871"
         ry="0.53053772"
         transform="rotate(-13.668042)" />
      <rect
         style="fill:none;stroke:#666666;stroke-width:0.1;stroke-dasharray:none"
         id="rect74"
         width="3.3860159"
         height="1.0610754"
         x="-4.0137601"
         y="13.214741"
         ry="0.53053772"
         transform="rotate(-18.171853)" />
      <rect
         style="fill:none;stroke:#666666;stroke-width:0.1;stroke-dasharray:none"
         id="rect75"
         width="3.3860159"
         height="1.2343389"
         x="3.663197"
         y="-0.37505373"
         ry="0.61716944"
         transform="rotate(8.8072592)" />
      <rect
         style="fill:none;stroke:#666666;stroke-width:0.100001;stroke-dasharray:none"
         id="rect76"
         width="4.2170324"
         height="1.5111957"
         x="4.0855317"
         y="3.3633749"
         ry="0.75559783"
         transform="matrix(0.99228984,-0.12393898,0.12832624,0.99173201,0,0)" />
      <rect
         style="fill:none;stroke:#666666;stroke-width:0.1;stroke-dasharray:none"
         id="rect77"
         width="3.3860159"
         height="1.2343389"
         x="5.0859399"
         y="3.5610611"
         ry="0.61716944"
         transform="rotate(12.441585)" />
      <rect
         style="fill:none;stroke:#666666;stroke-width:0.1;stroke-dasharray:none"
         id="rect78"
         width="3.3860159"
         height="1.2343389"
         x="2.4968927"
         y="8.3484383"
         ry="0.61716944"
         transform="rotate(-10.782348)" />
      <rect
         style="fill:none;stroke:#666666;stroke-width:0.100041;stroke-dasharray:none"
         id="rect79"
         width="4.2750211"
         height="1.5153538"
         x="-0.74407053"
         y="11.34856"
         ry="0.7576769"
         transform="matrix(0.89509221,-0.44588109,0.48166617,0.87635478,0,0)" />
      <rect
         style="fill:none;stroke:#666666;stroke-width:0.1;stroke-dasharray:none"
         id="rect80"
         width="3.3860159"
         height="1.2343389"
         x="8.8967342"
         y="8.3860435"
         ry="0.61716944"
         transform="rotate(25.334219)" />
      <rect
         style="fill:none;stroke:#666666;stroke-width:0.1;stroke-dasharray:none"
         id="rect81"
         width="3.3860159"
         height="1.2343389"
         x="4.1135435"
         y="14.214737"
         ry="0.61716944" />
    </g>
    <g
       id="g145"
       transform="matrix(0.61943508,0,0,0.61943508,12.168504,0.6189722)"
       style="fill:none;stroke:#666666;stroke-width:0.264584;stroke-dasharray:none">
      <rect
         style="fill:none;stroke:#666666;stroke-width:0.1;stroke-dasharray:none"
         id="rect133"
         width="3.3860159"
         height="1.0610754"
         x="-31.188322"
         y="1.5710112"
         ry="0.53053772"
         transform="scale(-1,1)" />
      <rect
         style="fill:none;stroke:#666666;stroke-width:0.1;stroke-dasharray:none"
         id="rect134"
         width="3.3860159"
         height="1.0610754"
         x="-31.127886"
         y="-5.3550372"
         ry="0.53053772"
         transform="matrix(-0.95176066,-0.30684139,-0.30684139,0.95176066,0,0)" />
      <rect
         style="fill:none;stroke:#666666;stroke-width:0.1;stroke-dasharray:none"
         id="rect135"
         width="3.3860159"
         height="1.0610754"
         x="-28.593243"
         y="13.336696"
         ry="0.53053772"
         transform="matrix(-0.96889296,0.24748018,0.24748018,0.96889296,0,0)" />
      <rect
         style="fill:none;stroke:#666666;stroke-width:0.1;stroke-dasharray:none"
         id="rect136"
         width="3.3860159"
         height="1.0610754"
         x="-31.832054"
         y="6.1577487"
         ry="0.53053772"
         transform="matrix(-0.99668785,-0.08132233,-0.08132233,0.99668785,0,0)" />
      <rect
         style="fill:none;stroke:#666666;stroke-width:0.1;stroke-dasharray:none"
         id="rect137"
         width="3.3860159"
         height="1.0610754"
         x="-33.333885"
         y="-0.77547002"
         ry="0.53053772"
         transform="matrix(-0.92933185,-0.36924561,-0.36924561,0.92933185,0,0)" />
      <rect
         style="fill:none;stroke:#666666;stroke-width:0.1;stroke-dasharray:none"
         id="rect138"
         width="3.3860159"
         height="1.0610754"
         x="-34.253239"
         y="-0.81966352"
         ry="0.53053772"
         transform="matrix(-0.90203631,-0.43166016,-0.43166016,0.90203631,0,0)" />
      <rect
         style="fill:none;stroke:#666666;stroke-width:0.1;stroke-dasharray:none"
         id="rect139"
         width="3.3860159"
         height="1.2343389"
         x="-28.032228"
         y="0.25196967"
         ry="0.61716944"
         transform="scale(-1,1)" />
      <rect
         style="fill:none;stroke:#666666;stroke-width:0.100011;stroke-dasharray:none"
         id="rect140"
         width="4.6444149"
         height="1.6088318"
         x="-25.78808"
         y="6.7966871"
         ry="0.80441588"
         transform="matrix(-0.98387421,0.17886179,0.19886137,0.98002763,0,0)" />
      <rect
         style="fill:none;stroke:#666666;stroke-width:0.1;stroke-dasharray:none"
         id="rect141"
         width="3.3860159"
         height="1.2343389"
         x="-28.032228"
         y="4.980155"
         ry="0.61716944"
         transform="scale(-1,1)" />
      <rect
         style="fill:none;stroke:#666666;stroke-width:0.1;stroke-dasharray:none"
         id="rect142"
         width="3.3860159"
         height="1.2343389"
         x="-27.81415"
         y="-2.8728461"
         ry="0.61716944"
         transform="matrix(-0.92997265,-0.36762872,-0.36762872,0.92997265,0,0)" />
      <rect
         style="fill:none;stroke:#666666;stroke-width:0.100045;stroke-dasharray:none"
         id="rect143"
         width="4.2321353"
         height="1.4725945"
         x="-20.580198"
         y="17.146608"
         ry="0.73629725"
         transform="matrix(-0.94008532,0.34093929,0.3803886,0.92482675,0,0)" />
      <rect
         style="fill:none;stroke:#666666;stroke-width:0.1;stroke-dasharray:none"
         id="rect144"
         width="3.3860159"
         height="1.2343389"
         x="-21.899384"
         y="18.833158"
         ry="0.61716944"
         transform="matrix(-0.95075518,0.30994289,0.30994289,0.95075518,0,0)" />
      <rect
         style="fill:none;stroke:#666666;stroke-width:0.1;stroke-dasharray:none"
         id="rect145"
         width="3.3860159"
         height="1.2343389"
         x="-27.545183"
         y="13.920602"
         ry="0.61716944"
         transform="scale(-1,1)" />
    </g>
    <g
       id="g171"
       transform="matrix(0.61943508,0,0,0.61943508,10.158167,12.292357)"
       style="fill:none;stroke:#666666;stroke-width:0.1;stroke-dasharray:none">
      <rect
         style="fill:none;stroke:#666666;stroke-width:0.1;stroke-dasharray:none"
         id="rect159"
         width="3.3860159"
         height="1.0610754"
         x="0.94550484"
         y="0.78993273"
         ry="0.53053772"
         transform="rotate(18.540099)" />
      <rect
         style="fill:none;stroke:#666666;stroke-width:0.1;stroke-dasharray:none"
         id="rect160"
         width="3.3860159"
         height="1.0610754"
         x="-1.1241057"
         y="4.3304973"
         ry="0.53053772"
         transform="rotate(-18.49712)" />
      <rect
         style="fill:none;stroke:#666666;stroke-width:0.1;stroke-dasharray:none"
         id="rect161"
         width="3.3860159"
         height="1.0610754"
         x="2.0610011"
         y="5.4732943"
         ry="0.53053772"
         transform="rotate(14.919409)" />
      <rect
         style="fill:none;stroke:#666666;stroke-width:0.1;stroke-dasharray:none"
         id="rect162"
         width="3.3860159"
         height="1.0610754"
         x="3.4188585"
         y="7.288033"
         ry="0.53053772"
         transform="rotate(20.300706)" />
      <rect
         style="fill:none;stroke:#666666;stroke-width:0.1;stroke-dasharray:none"
         id="rect163"
         width="3.3860159"
         height="1.0610754"
         x="-2.4429278"
         y="11.136871"
         ry="0.53053772"
         transform="rotate(-13.668042)" />
      <rect
         style="fill:none;stroke:#666666;stroke-width:0.1;stroke-dasharray:none"
         id="rect164"
         width="3.3860159"
         height="1.0610754"
         x="-4.0137601"
         y="13.214741"
         ry="0.53053772"
         transform="rotate(-18.171853)" />
      <rect
         style="fill:none;stroke:#666666;stroke-width:0.1;stroke-dasharray:none"
         id="rect165"
         width="3.3860159"
         height="1.2343389"
         x="3.663197"
         y="-0.37505373"
         ry="0.61716944"
         transform="rotate(8.8072592)" />
      <rect
         style="fill:none;stroke:#666666;stroke-width:0.100001;stroke-dasharray:none"
         id="rect166"
         width="4.2170324"
         height="1.5111957"
         x="4.0855317"
         y="3.3633749"
         ry="0.75559783"
         transform="matrix(0.99228984,-0.12393898,0.12832624,0.99173201,0,0)" />
      <rect
         style="fill:none;stroke:#666666;stroke-width:0.1;stroke-dasharray:none"
         id="rect167"
         width="3.3860159"
         height="1.2343389"
         x="5.0859399"
         y="3.5610611"
         ry="0.61716944"
         transform="rotate(12.441585)" />
      <rect
         style="fill:none;stroke:#666666;stroke-width:0.1;stroke-dasharray:none"
         id="rect168"
         width="3.3860159"
         height="1.2343389"
         x="2.4968927"
         y="8.3484383"
         ry="0.61716944"
         transform="rotate(-10.782348)" />
      <rect
         style="fill:none;stroke:#666666;stroke-width:0.100041;stroke-dasharray:none"
         id="rect169"
         width="4.2750211"
         height="1.5153538"
         x="-0.74407053"
         y="11.34856"
         ry="0.7576769"
         transform="matrix(0.89509221,-0.44588109,0.48166617,0.87635478,0,0)" />
      <rect
         style="fill:none;stroke:#666666;stroke-width:0.1;stroke-dasharray:none"
         id="rect170"
         width="3.3860159"
         height="1.2343389"
         x="8.8967342"
         y="8.3860435"
         ry="0.61716944"
         transform="rotate(25.334219)" />
      <rect
         style="fill:none;stroke:#666666;stroke-width:0.1;stroke-dasharray:none"
         id="rect171"
         width="3.3860159"
         height="1.2343389"
         x="4.1135435"
         y="14.214737"
         ry="0.61716944" />
    </g>
    <g
       id="g184"
       transform="matrix(0.61943508,0,0,0.61943508,24.847217,2.9166932)"
       style="fill:none;stroke:#666666;stroke-width:0.1;stroke-dasharray:none">
      <rect
         style="fill:none;stroke:#666666;stroke-width:0.1;stroke-dasharray:none"
         id="rect172"
         width="3.3860159"
         height="1.0610754"
         x="0.94550484"
         y="0.78993273"
         ry="0.53053772"
         transform="rotate(18.540099)" />
      <rect
         style="fill:none;stroke:#666666;stroke-width:0.1;stroke-dasharray:none"
         id="rect173"
         width="3.3860159"
         height="1.0610754"
         x="-1.1241057"
         y="4.3304973"
         ry="0.53053772"
         transform="rotate(-18.49712)" />
      <rect
         style="fill:none;stroke:#666666;stroke-width:0.1;stroke-dasharray:none"
         id="rect174"
         width="3.3860159"
         height="1.0610754"
         x="2.0610011"
         y="5.4732943"
         ry="0.53053772"
         transform="rotate(14.919409)" />
      <rect
         style="fill:none;stroke:#666666;stroke-width:0.1;stroke-dasharray:none"
         id="rect175"
         width="3.3860159"
         height="1.0610754"
         x="3.4188585"
         y="7.288033"
         ry="0.53053772"
         transform="rotate(20.300706)" />
      <rect
         style="fill:none;stroke:#666666;stroke-width:0.1;stroke-dasharray:none"
         id="rect176"
         width="3.3860159"
         height="1.0610754"
         x="-2.4429278"
         y="11.136871"
         ry="0.53053772"
         transform="rotate(-13.668042)" />
      <rect
         style="fill:none;stroke:#666666;stroke-width:0.1;stroke-dasharray:none"
         id="rect177"
         width="3.3860159"
         height="1.0610754"
         x="-4.0137601"
         y="13.214741"
         ry="0.53053772"
         transform="rotate(-18.171853)" />
      <rect
         style="fill:none;stroke:#666666;stroke-width:0.1;stroke-dasharray:none"
         id="rect178"
         width="3.3860159"
         height="1.2343389"
         x="3.663197"
         y="-0.37505373"
         ry="0.61716944"
         transform="rotate(8.8072592)" />
      <rect
         style="fill:none;stroke:#666666;stroke-width:0.100001;stroke-dasharray:none"
         id="rect179"
         width="4.2170324"
         height="1.5111957"
         x="4.0855317"
         y="3.3633749"
         ry="0.75559783"
         transform="matrix(0.99228984,-0.12393898,0.12832624,0.99173201,0,0)" />
      <rect
         style="fill:none;stroke:#666666;stroke-width:0.1;stroke-dasharray:none"
         id="rect180"
         width="3.3860159"
         height="1.2343389"
         x="5.0859399"
         y="3.5610611"
         ry="0.61716944"
         transform="rotate(12.441585)" />
      <rect
         style="fill:none;stroke:#666666;stroke-width:0.1;stroke-dasharray:none"
         id="rect181"
         width="3.3860159"
         height="1.2343389"
         x="2.4968927"
         y="8.3484383"
         ry="0.61716944"
         transform="rotate(-10.782348)" />
      <rect
         style="fill:none;stroke:#666666;stroke-width:0.100041;stroke-dasharray:none"
         id="rect182"
         width="4.2750211"
         height="1.5153538"
         x="-0.74407053"
         y="11.34856"
         ry="0.7576769"
         transform="matrix(0.89509221,-0.44588109,0.48166617,0.87635478,0,0)" />
      <rect
         style="fill:none;stroke:#666666;stroke-width:0.1;stroke-dasharray:none"
         id="rect183"
         width="3.3860159"
         height="1.2343389"
         x="8.8967342"
         y="8.3860435"
         ry="0.61716944"
         transform="rotate(25.334219)" />
      <rect
         style="fill:none;stroke:#666666;stroke-width:0.1;stroke-dasharray:none"
         id="rect184"
         width="3.3860159"
         height="1.2343389"
         x="4.1135435"
         y="14.214737"
         ry="0.61716944" />
    </g>
  </g>
</svg>
