<?xml version="1.0" encoding="UTF-8" standalone="no"?>
<!-- Created with Inkscape (http://www.inkscape.org/) -->

<svg
   width="222.62477mm"
   height="157.64503mm"
   viewBox="0 0 222.62478 157.64503"
   version="1.1"
   id="svg5"
   inkscape:version="1.3.2 (1:1.3.2+202311252150+091e20ef0f)"
   sodipodi:docname="logo.svg"
   inkscape:export-filename="logo1.png"
   inkscape:export-xdpi="100"
   inkscape:export-ydpi="100"
   xmlns:inkscape="http://www.inkscape.org/namespaces/inkscape"
   xmlns:sodipodi="http://sodipodi.sourceforge.net/DTD/sodipodi-0.dtd"
   xmlns="http://www.w3.org/2000/svg"
   xmlns:svg="http://www.w3.org/2000/svg">
  <sodipodi:namedview
     id="namedview7"
     pagecolor="#505050"
     bordercolor="#eeeeee"
     borderopacity="1"
     inkscape:showpageshadow="0"
     inkscape:pageopacity="0"
     inkscape:pagecheckerboard="0"
     inkscape:deskcolor="#505050"
     inkscape:document-units="mm"
     showgrid="false"
     inkscape:zoom="0.71624578"
     inkscape:cx="195.46363"
     inkscape:cy="450.96252"
     inkscape:window-width="1920"
     inkscape:window-height="1016"
     inkscape:window-x="0"
     inkscape:window-y="0"
     inkscape:window-maximized="1"
     inkscape:current-layer="text4" />
  <defs
     id="defs2">
    <inkscape:path-effect
       effect="simplify"
       id="path-effect465"
       is_visible="true"
       lpeversion="1"
       steps="1"
       threshold="0.00416667"
       smooth_angles="360"
       helper_size="0"
       simplify_individual_paths="false"
       simplify_just_coalesce="false" />
  </defs>
  <g
     inkscape:label="Layer 1"
     inkscape:groupmode="layer"
     id="layer1"
     transform="translate(-18.824495,-75.518775)">
    <path
       style="fill:#fefefe;stroke-width:1.08136"
       d="m 128.71407,208.93441 c -1.35668,-0.82667 -3.25121,-7.48538 -5.92323,-20.81834 -0.42086,-2.09998 -0.47774,-2.1054 -1.44048,-0.13722 -5.80264,11.86264 -21.4232,18.09984 -45.615993,18.21424 -13.539849,0.064 -20.234471,-4.85726 -25.244209,-18.55726 -0.551906,-1.50928 -1.44763,-3.95072 -1.990501,-5.42542 l -0.987035,-2.68129 -5.524429,0.0375 c -6.20495,0.0422 -7.292826,-0.15707 -9.379531,-1.71765 -5.312264,-3.97291 -3.199599,-14.76875 5.84864,-29.88689 l 3.050824,-5.09742 -0.643282,-2.21101 C 34.263791,117.9654 47.213086,91.000901 69.889256,80.215723 76.591318,77.028107 81.619182,75.833706 89.248489,75.61681 104.39473,75.186215 117.75264,80.137112 128.46133,90.150425 l 2.19696,2.054295 2.26024,-2.137021 c 2.99948,-2.835956 6.3394,-5.312248 9.95099,-7.377904 12.88278,-7.368326 29.51975,-9.227788 42.85,-4.789208 25.61582,8.529312 41.89874,37.822303 34.74189,62.500683 l -0.70414,2.42803 2.8224,4.70335 c 10.54356,17.57023 11.8605,28.98737 3.64371,31.58887 -1.41501,0.44799 -2.39954,0.51306 -7.03714,0.46507 l -5.39195,-0.0558 -0.47192,1.17115 c -0.25957,0.64414 -1.02972,2.77649 -1.71149,4.73854 -5.4645,15.72644 -11.8863,20.81954 -26.16597,20.75214 -24.26277,-0.11454 -39.22198,-6.13891 -45.60747,-18.36704 l -0.904,-1.73115 -1.28861,5.98458 c -1.50197,6.97554 -3.46705,14.71581 -4.0088,15.79026 -0.76714,1.52148 -3.28046,2.06537 -4.92196,1.06512 z"
       id="path4" />
    <g
       id="g2241"
       inkscape:export-filename="logo.png"
       inkscape:export-xdpi="100"
       inkscape:export-ydpi="100"
       transform="matrix(0.94488093,0,0,0.94488093,7.4434975,35.407262)"
       style="display:inline">
      <path
         id="path733"
         style="fill:#ffff00;fill-rule:evenodd;stroke:#000000;stroke-width:6.165;stroke-dasharray:none"
         transform="matrix(-1,0,0,1,182.76383,-6.2798507)"
         d="m 92.490581,111.36042 c -0.93251,4.1451 -6.717472,4.38569 -9.943421,2.42094 -5.316781,-3.23817 -5.680598,-10.64127 -2.257356,-15.378863 4.843042,-6.70252 14.602327,-7.004949 20.814296,-2.093777 8.10794,6.41012 8.34297,18.57817 1.9302,26.24974 -7.960911,9.52361 -22.561526,9.68835 -31.685177,1.76662 -10.945182,-9.5033 -11.038134,-26.549286 -1.603041,-37.12062 11.040806,-12.370418 30.539848,-12.39073 42.556058,-1.439462 13.79808,12.57522 13.74524,34.532322 1.27588,47.991502 -14.107557,15.22742 -38.526147,15.10109 -53.426934,1.1123 C 26.226407,94.65432 53.918151,59.45063 88.334341,57.25746 122.75053,55.06429 147.083,92.269013 136.03435,120.24067 c 3.5244,6.45288 6.27986,9.97388 8.49627,15.14552 2.21642,5.17164 4.98694,12.9291 2.40112,15.88433 -2.58582,2.95522 -8.73326,0.82801 -14.22201,1.66231 -4.96737,0.75506 -3.69403,26.41231 -24.9347,26.04291 C 55.544874,178.8665 61.32858,152.94446 61.04555,136.6791 65.470498,93.702644 95.015175,100.13835 92.490581,111.36042 Z"
         sodipodi:nodetypes="sssssssssczcsssccs" />
      <path
         style="fill:#d40000;fill-opacity:0.996078;stroke:#000000;stroke-width:6.165;stroke-linecap:round;stroke-miterlimit:5.4;stroke-dasharray:none"
         d="m 121.73187,134.33277 c 0,0 3.86569,25.51781 8.52645,41.44936"
         id="path2179"
         sodipodi:nodetypes="cc" />
    </g>
    <g
       id="g2247"
       transform="matrix(-0.94488093,0,0,0.94488093,253.87144,35.407262)"
       style="display:inline;fill:#d40000">
      <path
         id="path2243"
         style="fill:#d40000;fill-rule:evenodd;stroke:#000000;stroke-width:6.165;stroke-dasharray:none"
         transform="matrix(-1,0,0,1,182.76383,-6.2798507)"
         d="m 92.490581,111.36042 c -0.93251,4.1451 -6.717472,4.38569 -9.943421,2.42094 -5.316781,-3.23817 -5.680598,-10.64127 -2.257356,-15.378863 4.843042,-6.70252 14.602327,-7.004949 20.814296,-2.093777 8.10794,6.41012 8.34297,18.57817 1.9302,26.24974 -7.960911,9.52361 -22.561526,9.68835 -31.685177,1.76662 -10.945182,-9.5033 -11.038134,-26.549286 -1.603041,-37.12062 11.040806,-12.370418 30.539848,-12.39073 42.556058,-1.439462 13.79808,12.57522 13.74524,34.532322 1.27588,47.991502 -14.107557,15.22742 -38.526147,15.10109 -53.426934,1.1123 C 26.226407,94.65432 53.918151,59.45063 88.334341,57.25746 122.75053,55.06429 147.083,92.269013 136.03435,120.24067 c 3.5244,6.45288 6.27986,9.97388 8.49627,15.14552 2.21642,5.17164 4.98694,12.9291 2.40112,15.88433 -2.58582,2.95522 -8.73326,0.82801 -14.22201,1.66231 -4.96737,0.75506 -3.69403,26.41231 -24.9347,26.04291 C 55.544874,178.8665 61.32858,152.94446 61.04555,136.6791 65.470498,93.702644 95.015175,100.13835 92.490581,111.36042 Z"
         sodipodi:nodetypes="sssssssssczcsssccs" />
      <path
         style="fill:#d40000;fill-opacity:0.996078;stroke:#000000;stroke-width:6.165;stroke-linecap:round;stroke-miterlimit:5.4;stroke-dasharray:none"
         d="m 121.73187,134.33277 c 0,0 3.86569,25.51781 8.52645,41.44936"
         id="path2245"
         sodipodi:nodetypes="cc" />
    </g>
    <g
       id="text4"
       style="font-size:25.9px;fill:#ffffff;stroke:#ffffff;stroke-width:1.18785"
       transform="scale(1.0203229,0.98008189)"
       aria-label="TINKERER OWL">
      <path
         style="font-size:51.8px;font-family:Chilanka;-inkscape-font-specification:Chilanka;stroke:#000000;fill:#000000"
         d="m 34.409767,237.29638 c 0.885254,0 1.644043,-0.75879 1.644043,-1.64404 V 203.4038 c 3.793945,0.0253 7.562597,0 11.356543,0.0253 1.062304,0 1.593457,-0.83467 1.593457,-1.64405 0,-0.83466 -0.531153,-1.64404 -1.568164,-1.64404 l -26.810547,-0.10117 c -1.062305,0 -1.593457,0.80937 -1.593457,1.64404 0,0.80938 0.531152,1.64404 1.593457,1.64404 l 12.140625,0.0506 v 32.27383 c 0,0.88525 0.758789,1.64404 1.644043,1.64404 z"
         id="path1" />
      <path
         style="font-family:Chilanka;-inkscape-font-specification:Chilanka;fill:#000000;stroke:#000000"
         d="m 48.509384,218.22548 c -0.442627,0 -0.847315,0.39204 -0.847315,0.83467 l 0.164404,17.12334 c 0,0.51851 0.404688,0.78408 0.809375,0.78408 0.417334,0 0.847315,-0.27822 0.834668,-0.80937 l -0.164404,-17.1107 c 0,-0.42998 -0.392041,-0.82202 -0.796728,-0.82202 z m 4.755076,18.83062 c 0.442627,0 0.859961,-0.39204 0.847315,-0.84732 l -0.404688,-14.17671 10.243652,14.7458 c 0.164405,0.22764 0.417334,0.34146 0.657617,0.34146 0.429981,0 0.847315,-0.31616 0.834668,-0.83467 l -0.543798,-17.35097 c -0.01265,-0.51851 -0.417334,-0.77144 -0.822022,-0.77144 -0.417334,0 -0.847314,0.27822 -0.822021,0.82202 l 0.455273,14.5814 -10.231006,-14.73316 c -0.164404,-0.22763 -0.404687,-0.34145 -0.657617,-0.34145 -0.42998,0 -0.847314,0.32881 -0.834668,0.83467 l 0.480567,16.93364 c 0,0.42998 0.392041,0.79673 0.796728,0.79673 z m 27.493458,-1.04966 c 0,-0.72085 -0.796729,-1.83374 -2.390186,-3.37661 -1.896972,-1.83374 -4.223926,-3.76865 -6.955566,-5.80474 0.505859,-0.39204 1.125537,-0.88525 1.859033,-1.47964 3.477783,-2.82016 5.53916,-4.72978 6.171484,-5.71621 0.08853,-0.13911 0.126465,-0.29087 0.126465,-0.44262 0,-0.42999 -0.354101,-0.83467 -0.796728,-0.83467 -0.328809,0 -0.607032,0.24028 -0.796729,0.53115 -0.177051,0.27822 -0.93584,1.02436 -2.251074,2.23843 -1.315234,1.21406 -3.111035,2.70634 -5.400049,4.46421 l -0.46792,0.36674 c 0.05059,-1.9602 0.101172,-4.21127 0.164405,-6.71528 0,-0.45527 -0.379395,-0.83467 -0.796729,-0.83467 -0.42998,0 -0.834668,0.36675 -0.847314,0.79673 -0.240284,10.05396 -0.404688,15.68164 -0.404688,17.02217 0,0.51851 0.404688,0.78408 0.822022,0.78408 0.404687,0 0.822021,-0.26557 0.822021,-0.78408 0.01265,-0.87261 0.08853,-3.71807 0.202344,-8.53638 2.959277,2.1752 5.387402,4.18599 7.309668,6.03238 1.214062,1.16347 1.896972,2.01079 2.04873,2.51665 0.113819,0.36674 0.429981,0.55644 0.758789,0.55644 0.417334,0 0.822022,-0.29087 0.822022,-0.78408 z m 7.486722,-15.84605 c 3.768652,0 6.373828,0.30352 7.777584,0.9232 0.12646,0.0632 0.25293,0.0885 0.366747,0.0885 0.46792,0 0.758777,-0.3541 0.771427,-0.78408 0.0126,-0.36675 -0.13911,-0.64497 -0.467917,-0.79673 -1.391101,-0.61967 -3.680117,-0.96113 -6.90497,-1.0623 -1.65669,-0.0506 -3.212207,-0.0379 -4.653906,0.0506 l -0.910547,0.0632 c -0.404688,0.0253 -0.771436,0.39204 -0.771436,0.80937 0,2.54194 0.08853,4.88154 0.08853,6.99351 0,2.79487 -0.25293,8.87783 -0.25293,9.34575 0,0.46792 0.404687,0.85996 0.822021,0.85996 5.969141,0 9.788379,-0.0632 11.445074,-0.21499 0.493207,-0.0379 0.720847,-0.41733 0.720847,-0.80938 0,-0.41733 -0.27823,-0.88525 -0.784077,-0.83466 -1.50494,0.12646 -4.995369,0.20234 -10.521883,0.21499 l 0.06323,-1.21407 c 0.06323,-1.32788 0.113818,-3.11103 0.139111,-5.3621 l 9.168701,0.0632 c 0.531155,0.0126 0.796725,-0.40469 0.796725,-0.82202 0,-0.40469 -0.26557,-0.82203 -0.784078,-0.82203 l -9.168702,-0.0632 c 0,-1.93491 -0.02529,-4.12275 -0.07588,-6.55088 0.796728,-0.0506 2.074023,-0.0759 3.136328,-0.0759 z m 12.39352,16.95894 c 0.41734,0 0.82202,-0.34146 0.84732,-0.77144 0.0379,-0.83466 0.0632,-2.08667 0.0632,-3.756 0,-0.77144 0,-1.6314 -0.0127,-2.57988 0.0379,0.0253 0.0632,0.0506 0.0885,0.0632 l 11.64742,6.90498 c 0.61968,0.36675 1.21406,-0.20235 1.21406,-0.72085 0,-0.26558 -0.11382,-0.5438 -0.37939,-0.69556 l -9.11812,-5.41269 c 0.63233,-0.0379 1.17613,-0.10117 1.65669,-0.17705 4.11011,-0.68291 6.17149,-2.65577 6.17149,-5.91856 0,-2.65576 -1.13819,-4.41362 -3.35132,-5.27358 -1.12554,-0.44263 -2.61782,-0.65762 -4.47686,-0.65762 -1.34052,0 -2.87075,0.11382 -4.59067,0.34146 -0.36675,0.0506 -0.720851,0.41733 -0.708201,0.83466 l 0.0885,3.89512 c 0.0885,3.88247 0.12647,6.98086 0.12647,9.28252 0,1.69463 -0.0253,2.95928 -0.0632,3.7813 -0.0253,0.45527 0.366751,0.85996 0.796731,0.85996 z m 0.88526,-8.39727 c -0.0253,-1.61875 -0.0506,-3.46513 -0.10118,-5.5518 l -0.0759,-3.17427 c 1.34052,-0.1644 2.55459,-0.25293 3.61689,-0.25293 2.90869,0 4.78037,0.63232 5.62769,1.89697 0.37939,0.58174 0.58173,1.39112 0.58173,2.40284 0,1.45434 -0.58173,2.56723 -1.71992,3.30073 -1.23935,0.80937 -3.4019,1.21406 -6.46235,1.21406 -0.30352,0 -0.61968,0 -0.93584,-0.0127 -0.20234,0 -0.36675,0.0506 -0.53115,0.17705 z m 20.47465,-8.56167 c 3.76866,0 6.37383,0.30352 7.77759,0.9232 0.12647,0.0632 0.25293,0.0885 0.36675,0.0885 0.46792,0 0.75879,-0.3541 0.77143,-0.78408 0.0126,-0.36675 -0.13911,-0.64497 -0.46792,-0.79673 -1.39111,-0.61967 -3.68012,-0.96113 -6.90498,-1.0623 -1.65668,-0.0506 -3.2122,-0.0379 -4.6539,0.0506 l -0.91055,0.0632 c -0.40469,0.0253 -0.77143,0.39204 -0.77143,0.80937 0,2.54194 0.0885,4.88154 0.0885,6.99351 0,2.79487 -0.25293,8.87783 -0.25293,9.34575 0,0.46792 0.40469,0.85996 0.82202,0.85996 5.96914,0 9.78838,-0.0632 11.44507,-0.21499 0.49321,-0.0379 0.72085,-0.41733 0.72085,-0.80938 0,-0.41733 -0.27822,-0.88525 -0.78408,-0.83466 -1.50493,0.12646 -4.99536,0.20234 -10.52188,0.21499 l 0.0632,-1.21407 c 0.0632,-1.32788 0.11381,-3.11103 0.13911,-5.3621 l 9.1687,0.0632 c 0.53115,0.0126 0.79673,-0.40469 0.79673,-0.82202 0,-0.40469 -0.26558,-0.82203 -0.78408,-0.82203 l -9.16871,-0.0632 c 0,-1.93491 -0.0253,-4.12275 -0.0759,-6.55088 0.79672,-0.0506 2.07402,-0.0759 3.13632,-0.0759 z m 12.39356,16.95894 c 0.41733,0 0.82202,-0.34146 0.84731,-0.77144 0.0379,-0.83466 0.0632,-2.08667 0.0632,-3.756 0,-0.77144 0,-1.6314 -0.0126,-2.57988 0.0379,0.0253 0.0632,0.0506 0.0885,0.0632 l 11.64741,6.90498 c 0.61968,0.36675 1.21407,-0.20235 1.21407,-0.72085 0,-0.26558 -0.11382,-0.5438 -0.3794,-0.69556 l -9.11811,-5.41269 c 0.63232,-0.0379 1.17612,-0.10117 1.65669,-0.17705 4.1101,-0.68291 6.17148,-2.65577 6.17148,-5.91856 0,-2.65576 -1.13818,-4.41362 -3.35132,-5.27358 -1.12553,-0.44263 -2.61782,-0.65762 -4.47685,-0.65762 -1.34053,0 -2.87075,0.11382 -4.59068,0.34146 -0.36674,0.0506 -0.72085,0.41733 -0.7082,0.83466 l 0.0885,3.89512 c 0.0885,3.88247 0.12646,6.98086 0.12646,9.28252 0,1.69463 -0.0253,2.95928 -0.0632,3.7813 -0.0253,0.45527 0.36675,0.85996 0.79673,0.85996 z m 0.88525,-8.39727 c -0.0253,-1.61875 -0.0506,-3.46513 -0.10117,-5.5518 l -0.0759,-3.17427 c 1.34053,-0.1644 2.55459,-0.25293 3.61689,-0.25293 2.9087,0 4.78038,0.63232 5.62769,1.89697 0.37939,0.58174 0.58174,1.39112 0.58174,2.40284 0,1.45434 -0.58174,2.56723 -1.71992,3.30073 -1.23936,0.80937 -3.40191,1.21406 -6.46236,1.21406 -0.30351,0 -0.61968,0 -0.93584,-0.0127 -0.20234,0 -0.36675,0.0506 -0.53115,0.17705 z m 41.58164,-0.65761 c 0,-1.92227 -0.67026,-3.81924 -1.89697,-5.42534 -1.55552,-2.0108 -4.23658,-3.69278 -7.43614,-3.86983 -0.12646,-0.0127 -0.25293,-0.0759 -0.44262,-0.0632 -2.20049,0.0885 -4.1354,0.82202 -5.81739,2.20049 -1.7705,1.42905 -3.38925,3.99629 -3.38925,6.85439 0,0.67027 0.0885,1.36582 0.25293,2.06138 0.72085,3.06045 2.95927,5.21035 5.61504,6.17148 1.20141,0.42998 2.42812,0.63233 3.61689,0.63233 5.223,0 9.49751,-3.46514 9.49751,-8.56167 z m -9.68721,-7.71436 c 0.0885,0.0379 0.17705,0.0632 0.26558,0.0632 1.21406,0.0632 2.37754,0.39205 3.47778,0.96114 2.30166,1.20141 4.31245,3.60425 4.31245,6.76587 0,3.66748 -2.90869,6.14619 -6.31059,6.71528 -0.55645,0.0885 -1.0876,0.13911 -1.60611,0.13911 -2.93398,0 -5.22299,-1.40376 -6.56352,-3.25015 -0.68291,-0.92319 -1.21406,-2.36489 -1.21406,-3.93305 0,-0.32881 0.0253,-0.68291 0.0759,-1.02437 0.29087,-1.84638 1.16348,-3.35132 2.61783,-4.54009 1.45434,-1.18877 3.09839,-1.82109 4.94477,-1.89697 z m 12.22916,-0.91055 c 0,6.84175 0.87261,11.83711 1.88433,14.44229 0.49321,1.26465 1.08759,2.1499 1.78315,2.63047 0.41733,0.27822 0.83467,0.41733 1.23935,0.41733 1.12554,0 2.21314,-1.02436 3.27544,-3.0478 0.91055,-1.71992 1.64405,-3.95835 2.22579,-6.71528 0.40468,2.39018 0.8979,4.26186 1.46699,5.61504 0.56909,1.35317 1.11289,2.3396 1.6061,2.98457 0.49321,0.64497 1.07495,1.07495 1.71992,1.30258 0.31617,0.11382 0.61968,0.16441 0.91055,0.16441 1.13818,0 1.9855,-0.80938 2.5293,-1.58081 1.56816,-2.25108 2.12461,-6.14619 2.12461,-10.21836 0,-1.9855 -0.13912,-3.99629 -0.34146,-5.89326 -0.0506,-0.48057 -0.41733,-0.70821 -0.79673,-0.70821 -0.41733,0 -0.83467,0.27823 -0.83467,0.78409 0,0.0253 0,0.0632 0,0.10117 0.20235,1.82109 0.32881,3.81924 0.32881,5.77944 0,3.69277 -0.46792,7.24644 -1.83374,9.21929 -0.37939,0.55644 -0.73349,0.83467 -1.0623,0.85996 -0.16441,0.0127 -0.36675,-0.0253 -0.60703,-0.10117 -0.24029,-0.0759 -0.5438,-0.36675 -0.9232,-0.84732 -0.37939,-0.48056 -0.74614,-1.15083 -1.11289,-2.02344 -1.28994,-3.06044 -2.04873,-7.49936 -2.28901,-13.32939 -0.0253,-0.50586 -0.42998,-0.75879 -0.83467,-0.75879 -0.39204,0 -0.79673,0.25293 -0.80937,0.77144 -0.10118,3.69277 -0.60703,7.10732 -1.53023,10.24365 -0.41733,1.40376 -0.85996,2.59253 -1.36582,3.54101 -0.50586,0.94849 -0.98642,1.6314 -1.46699,2.0108 -0.29087,0.22763 -0.40469,0.29087 -0.69556,0.0759 -1.01172,-0.7082 -1.78315,-3.09838 -2.32695,-7.14526 -0.31616,-2.36489 -0.51851,-5.23564 -0.61968,-8.61225 -0.0253,-0.41734 -0.39204,-0.79673 -0.80937,-0.79673 -0.42998,0 -0.83467,0.37939 -0.83467,0.83466 z"
         id="path2" />
      <path
         style="font-size:51.8px;font-family:Chilanka;-inkscape-font-specification:Chilanka;stroke:#000000;fill:#000000"
         d="m 210.81558,199.96396 c -0.85996,0 -1.69463,0.78408 -1.69463,1.66934 0,15.02402 0.85996,26.17822 1.4417,33.13378 0.0759,0.93584 0.48056,1.54287 1.16347,1.7958 0.96114,0.35411 1.71993,0.48057 2.60518,0.48057 0.91055,0 1.92227,-0.12646 3.31338,-0.30351 2.80752,-0.35411 6.29795,-0.80938 9.40898,-0.80938 2.63047,0 4.95743,0.30352 6.95557,0.88525 1.13818,0.32881 2.04873,-0.63232 2.04873,-1.51757 0,-0.70821 -0.42998,-1.41641 -1.13818,-1.64405 -2.27637,-0.68291 -4.85625,-1.01172 -7.76494,-1.01172 -1.467,0 -2.98458,0.10118 -4.60333,0.25293 -2.83281,0.27823 -5.89326,0.80938 -8.49843,0.80938 -0.10117,0 -0.20235,0 -0.27823,0 -0.55644,-6.98086 -0.98642,-17.73037 -1.36582,-32.14736 0,-0.85996 -0.78408,-1.59346 -1.59345,-1.59346 z"
         id="path3" />
    </g>
  </g>
</svg>
