<?xml version="1.0" encoding="UTF-8" standalone="no"?>
<!-- Created with Inkscape (http://www.inkscape.org/) -->

<svg
   width="118.12169mm"
   height="104.32503mm"
   viewBox="0 0 118.12169 104.32503"
   version="1.1"
   id="svg1"
   xml:space="preserve"
   inkscape:version="1.3.2 (1:1.3.2+202311252150+091e20ef0f)"
   sodipodi:docname="pppic.svg"
   inkscape:export-filename="ppic.png"
   inkscape:export-xdpi="500"
   inkscape:export-ydpi="500"
   xmlns:inkscape="http://www.inkscape.org/namespaces/inkscape"
   xmlns:sodipodi="http://sodipodi.sourceforge.net/DTD/sodipodi-0.dtd"
   xmlns="http://www.w3.org/2000/svg"
   xmlns:svg="http://www.w3.org/2000/svg"><sodipodi:namedview
     id="namedview1"
     pagecolor="#ffffff"
     bordercolor="#000000"
     borderopacity="0.25"
     inkscape:showpageshadow="2"
     inkscape:pageopacity="0.0"
     inkscape:pagecheckerboard="0"
     inkscape:deskcolor="#d1d1d1"
     inkscape:document-units="mm"
     inkscape:zoom="1.0280428"
     inkscape:cx="349.69361"
     inkscape:cy="365.74353"
     inkscape:window-width="1856"
     inkscape:window-height="1016"
     inkscape:window-x="0"
     inkscape:window-y="0"
     inkscape:window-maximized="1"
     inkscape:current-layer="layer1"
     showguides="true"
     inkscape:export-bgcolor="#ffffffff"
     showgrid="false" /><defs
     id="defs1"><inkscape:path-effect
       effect="simplify"
       id="path-effect465"
       is_visible="true"
       lpeversion="1"
       steps="1"
       threshold="0.00416667"
       smooth_angles="360"
       helper_size="0"
       simplify_individual_paths="false"
       simplify_just_coalesce="false" /></defs><g
     inkscape:label="Layer 1"
     inkscape:groupmode="layer"
     id="layer1"
     transform="translate(-43.646461,-106.13185)"><g
       id="g28"
       transform="matrix(0.91716096,0,0,0.91259277,6.2744457,14.364129)"
       style="stroke:none"><path
         style="fill:#333333;stroke:none;stroke-width:0.1"
         d="m 100.40752,176.16517 c 0,0 -10.657721,-8.70982 -19.262434,-10.91695 -9.376207,-2.40501 -21.275993,-3.68499 -24.347916,-6.72122 -5.252802,-5.19175 -5.364206,-7.58366 -7.344534,-17.59375 -1.626242,-8.2202 -8.12403,8.66798 0.04612,20.7736 3.581402,5.30653 7.793385,9.67358 24.781513,12.89626 8.431578,1.59949 20.26213,11.51103 20.235592,13.33153 -0.02653,1.82051 5.891669,-11.76947 5.891669,-11.76947 z"
         id="path9"
         sodipodi:nodetypes="cssssssc" /><path
         style="fill:#4d4d4d;stroke:none;stroke-width:0.1"
         d="m 74.847275,164.01237 c 0,0 -2.563969,3.39617 -3.579574,5.988 -2.438143,6.22214 -6.958426,-23.58467 -2.383924,-28.54259 4.257353,-4.61419 27.888445,-5.34799 27.987489,1.01263 0.09904,6.36061 -9.121506,6.25482 -9.121506,6.25482 0,0 22.02088,20.91903 16.33923,26.76003 -7.167061,7.36807 -29.241715,-11.47289 -29.241715,-11.47289 z"
         id="path2"
         sodipodi:nodetypes="csszcsc" /><path
         id="path1"
         style="fill:#ececec;stroke:none;stroke-width:0.106522"
         d="m 87.862444,153.51206 c 3.512962,3.5526 6.62658,10.88778 4.720088,12.56991 -1.906491,1.68212 -10.391652,-2.16873 -13.904606,-5.72131 -3.512962,-3.5526 0.345724,-4.24675 2.252215,-5.92887 1.906492,-1.68212 3.419342,-4.47232 6.932303,-0.91973 z"
         sodipodi:nodetypes="sssss" /><path
         style="fill:#333333;stroke:none;stroke-width:0.1"
         d="m 107.05506,189.78263 c 0,0 -12.304628,6.16796 -21.18374,6.43969 -9.6752,0.29609 -21.566843,-1.05757 -25.22846,1.23329 -6.26113,3.9172 -6.892973,6.22683 -11.014697,15.56143 -3.384732,7.66552 -6.031541,-10.23496 4.588452,-20.26054 4.655306,-4.39478 9.720447,-7.73487 27.002124,-7.164 8.577268,0.28333 22.289171,-6.80075 22.661431,-8.58298 0.37229,-1.78222 3.17489,12.77311 3.17489,12.77311 z"
         id="path10"
         sodipodi:nodetypes="cssssssc" /><path
         style="fill:#333333;stroke:none;stroke-width:0.1"
         d="m 130.58359,165.01327 c 0,0 -0.13416,-13.76336 3.52312,-21.85884 3.98519,-8.82131 10.4262,-18.90876 9.9772,-23.20455 -0.76775,-7.34553 -2.56486,-8.92794 -9.13908,-16.73198 -5.3987,-6.408629 11.84421,-0.92101 16.1839,13.02403 1.90232,6.11285 2.67717,12.13045 -5.42899,27.40371 -4.02326,7.58045 -3.68449,23.01048 -2.24709,24.12798 1.4374,1.11751 -12.86906,-2.76035 -12.86906,-2.76035 z"
         id="path6"
         sodipodi:nodetypes="cssssssc" /><path
         style="fill:#333333;stroke:none;stroke-width:0.1"
         d="m 132.11728,167.26179 c 0,0 0.13416,-13.76336 -3.52312,-21.85884 -3.98519,-8.82131 -10.4262,-18.90876 -9.9772,-23.20455 0.76775,-7.34553 2.56486,-8.92794 9.13908,-16.73198 5.3987,-6.408629 -11.84421,-0.92101 -16.1839,13.02403 -1.90232,6.11285 -2.67717,12.13045 5.42899,27.40371 4.02326,7.58045 3.68449,23.01048 2.24709,24.12798 -1.4374,1.11751 12.86906,-2.76035 12.86906,-2.76035 z"
         id="path24"
         sodipodi:nodetypes="cssssssc" /><path
         style="fill:#333333;stroke:none;stroke-width:0.1"
         d="m 104.17055,167.46008 c 0,0 -11.046825,-8.21068 -15.286589,-16.01689 -4.619893,-8.50611 -8.764445,-19.73401 -12.458399,-21.97234 -6.316419,-3.82742 -8.663226,-3.3519 -18.853966,-2.83017 -8.36857,0.42843 6.423982,-9.9933 20.157089,-5.02351 6.019952,2.17852 11.282655,5.19777 18.552629,20.88629 3.608252,7.78655 16.106626,16.84143 17.865646,16.37155 1.75901,-0.46991 -9.97641,8.58507 -9.97641,8.58507 z"
         id="path19"
         sodipodi:nodetypes="cssssssc" /><path
         style="fill:#333333;stroke:none;stroke-width:0.1"
         d="m 104.6079,171.68574 c 0,0 -13.370942,-3.26586 -22.086692,-1.54884 -9.497194,1.87096 -20.786674,5.84477 -24.867247,4.42902 -6.977518,-2.42084 -8.108948,-4.53117 -14.210242,-12.71026 -5.010345,-6.71663 -3.594847,11.32302 8.995006,18.72521 5.518805,3.24479 11.201693,5.37004 27.919944,0.95616 8.297629,-2.1907 23.244821,1.65404 24.005501,3.30822 0.76071,1.65416 0.24373,-13.15951 0.24373,-13.15951 z"
         id="path28"
         sodipodi:nodetypes="cssssssc" /><path
         style="opacity:1;fill:#d38d5f;stroke:none;stroke-width:1.165"
         d="m 98.826351,160.29966 c 0.94944,-2.6351 0.405878,-5.87902 -1.254323,-8.09529 -1.070773,-2.59157 -2.709113,-4.74398 -4.557992,-6.80074 -0.816022,-2.40663 -4.233426,-5.08383 -2.14038,-7.60814 -4.483362,-32.18173 38.728604,-25.59553 33.663344,-2.9505 0.77515,-0.26831 1.66332,-0.48282 1.3236,2.70885 0.33265,2.79772 -0.56595,4.72785 -1.23378,7.4283 -0.75702,2.37459 0.0369,5.18285 -1.73879,7.19074 -1.79682,1.93173 -0.89926,4.727 -0.66278,7.3491 0.25053,2.46124 1.32344,4.12791 0.89439,6.8474 0.34386,2.48007 0.22255,6.26743 -2.86998,6.826 -3.6151,0.72773 -7.31431,1.49284 -11.03473,1.11813 -3.82061,0.015 -7.78133,-0.91867 -10.962674,-3.07241 -2.117242,-2.14176 -4.447312,-4.01279 -6.846969,-5.77383 -0.33036,-0.35857 -0.641712,-0.73397 -0.971198,-1.09332"
         id="path11"
         sodipodi:nodetypes="ccccccccccccccc" /><path
         style="opacity:1;fill:#000000;stroke:none;stroke-width:1.165"
         d="m 93.637121,132.89334 c 2.549445,-0.9606 4.195629,-1.53179 7.203309,-2.15188 2.28018,-0.34438 5.75787,0.15641 8.00555,0.2206 2.54054,-0.23081 2.97379,-0.35768 4.93951,-1.31481 2.52734,-0.80747 6.25735,-0.006 8.81887,0.26354 0.61281,0.84568 0.0981,3.86303 0.12088,5.73824 -0.37629,2.79873 -0.77764,3.83976 -5.12112,4.32314 -4.3666,0.37136 -4.98762,-1.49049 -6.55377,-3.82608 -0.85598,-1.84432 -1.07757,-4.54765 -2.58796,-4.357 -1.25747,-0.008 -0.7624,2.03729 -1.19384,3.80658 -0.50471,3.82647 -1.8188,5.37741 -5.01104,5.74106 -1.84884,0.29438 -4.214732,0.96967 -5.478713,-0.7948 -1.68448,-2.26921 -2.182041,-5.05455 -3.141676,-7.64859 z"
         id="path13"
         sodipodi:nodetypes="ccccccccccccc" /><path
         style="opacity:1;fill:#502d16;stroke:none;stroke-width:1.165"
         d="m 93.637121,141.30554 c -0.03391,0.31703 0.167503,0.63906 0.101299,0.95684 -0.03195,0.15337 -0.144323,0.30519 -0.2026,0.45283 -0.213262,0.54026 -0.321376,1.09056 -0.159948,1.66453 0.189095,0.67234 0.887621,0.89406 1.386215,1.26856 0.284126,0.21341 0.499216,0.48859 0.709105,0.7706 0.120539,0.16195 0.452517,1.38383 0.575812,1.35244 0.07891,-0.0201 0.164169,-0.10879 0.223928,-0.16172 0.19128,-0.16942 0.02551,-0.5365 -0.06398,-0.71088 -0.46474,-0.90565 -0.694573,-1.83329 -1.03433,-2.78914 -0.154482,-0.43461 -0.383045,-0.83543 -0.559816,-1.25968 -0.396105,-0.95065 -0.541986,-2.16847 -0.437192,-3.19078 0.08503,-0.82955 0.316796,-1.63983 0.367879,-2.47422 0.02814,-0.45957 -0.13327,-0.92263 -0.101298,-1.39155 0.09602,-1.40838 0.46536,-2.72205 0.810403,-4.08152 0.177704,-0.70016 0.30889,-1.62085 0.757086,-2.21048 0.563653,-0.74152 0.903714,-0.58288 1.588818,-0.96857 0.703916,-0.39628 1.409134,-0.87386 2.031338,-1.38871 0.100436,-0.0831 0.23263,-0.21408 0.357217,-0.25769 0.532293,-0.18631 1.818963,0.35155 2.356563,0.48269 0.55679,0.13582 1.1219,0.21419 1.67413,0.37179 0.70568,0.20139 1.37611,0.50438 2.07932,0.71088 0.56996,0.16737 1.15676,0.27399 1.73277,0.41693 0.62804,0.15585 -1.46348,-1.77722 -1.37022,-1.98549 0.0401,-0.0897 0.95766,0.40813 1.03433,0.44999 1.18083,0.64467 2.36525,1.33836 3.59883,1.87423 1.95579,0.84962 -0.59073,-1.05035 -0.63979,-1.43633 -0.001,-0.008 0.2935,0.0566 0.47451,0.1109 0.47156,0.14147 0.86179,0.33945 1.30091,0.5456 0.29089,0.13656 1.77224,0.82511 2.11131,0.66894 0.0519,-0.0239 -0.4628,-0.62096 -0.25058,-0.62096 0.12512,0 0.25484,0.0547 0.37854,0.0722 0.0864,0.0122 0.14179,0.0177 0.22393,0.0331 0.2721,0.0508 0.56056,0.0868 0.8264,0.16173 0.81115,0.2286 1.58075,0.56178 2.39922,0.77095 0.14725,0.0376 0.38072,0.16193 0.53316,0.15284 0.18185,-0.0108 -0.0632,-0.54647 0.016,-0.55769 0.0964,-0.0137 1.85502,0.65783 2.1273,0.73754 0.78748,0.23054 0.3965,-0.41411 0.49051,-0.44075 0.13593,-0.0385 0.42842,0.17105 0.54916,0.22784 0.26737,0.12577 0.89631,0.31758 1.00234,0.65685 0.0106,0.034 -0.0506,0.11333 -0.032,0.15 0.0864,0.17002 0.13862,0.36691 0.13862,0.58185 0,0.79955 -0.0112,1.57761 0.13329,2.37221 0.0458,0.25192 0.007,0.5278 0.016,0.78268 0.0133,0.38098 0.0703,0.78083 0.12262,1.15767 0.13554,0.97589 0.40171,1.92352 0.57048,2.89115 0.11692,0.67031 0.18244,1.33494 0.25592,2.0093 0.082,0.75292 0.16725,1.56598 -0.0107,2.3061 -0.0292,0.12135 -0.12435,1.43955 0.0426,1.41251 0.0437,-0.007 0.0782,-0.15956 0.10663,-0.20082 0.50118,-0.72838 0.52812,-1.51885 0.71444,-2.35728 0.0168,-0.0757 0.13434,0.23853 0.1866,0.16493 0.15624,-0.22004 0.0542,-1.73154 0.0373,-2.06333 -0.0466,-0.9164 0.0673,-1.75888 -0.08,-2.6722 -0.0968,-0.5999 -0.82896,-2.17279 -0.75709,-2.59685 0.0261,-0.15395 0.93086,-0.99478 1.09831,-1.55967 0.21785,-0.73486 0.14751,-1.48176 0.18128,-2.24033 0.0158,-0.35479 0.12153,-0.70448 0.14928,-1.0585 0.0368,-0.46882 -0.0691,-1.05771 0.13329,-1.49961 0.0889,-0.19413 0.15495,-0.41905 0.27725,-0.59678 0.10584,-0.15383 0.35188,-0.19839 0.35188,-0.4347 0,-0.84652 -0.4361,-1.91908 -0.65578,-2.71414 -0.1462,-0.52909 -0.1895,-1.07291 -0.38388,-1.59557 -0.18796,-0.5054 -0.60536,-0.89704 -0.85839,-1.36454 -0.16217,-0.29962 -0.218,-0.65324 -0.38387,-0.9508 -0.39655,-0.71138 -0.7434,-1.51655 -1.26359,-2.15041 -0.20693,-0.25215 -0.39223,-0.53057 -0.63446,-0.75247 -0.37081,-0.33968 -0.79266,-0.63585 -1.1463,-0.99274 -0.41427,-0.41809 -0.74533,-0.9467 -1.19961,-1.3226 -0.29985,-0.24811 -0.65784,-0.402 -0.98634,-0.60602 -1.21066,-0.75188 -2.39673,-1.55474 -3.73746,-2.07222 -1.37749,-0.53166 -3.78374,-0.94979 -5.27828,-1.05565 -0.63021,-0.0446 -1.30197,0.0343 -1.92471,-0.0601 -1.0817,-0.1639 -2.12061,-0.51998 -3.21495,-0.64157 -0.45447,-0.0505 -0.93234,0.0275 -1.39155,0.009 -0.44229,-0.0179 -0.88232,-0.10515 -1.32224,-0.15 -0.69646,-0.071 -1.39998,-0.0287 -2.095313,-0.0839 -1.047464,-0.0831 -1.799603,-0.39254 -2.884395,-0.26694 -1.565704,0.18129 -3.104698,0.69593 -3.716126,2.25847 -0.284662,0.72746 -0.256183,1.54527 -0.415864,2.29401 -0.08363,0.39212 -0.3259,0.7516 -0.39987,1.13954 -0.063,0.33039 -0.113758,0.66028 -0.271912,0.96288 -0.352092,0.67367 -2.268112,1.37182 -2.959039,1.85931 -0.763487,0.53869 -1.120416,1.38199 -1.562159,2.16534 -0.639402,1.13387 -1.421905,2.35031 -1.375552,3.70689 0.02529,0.73995 0.37548,1.38483 0.46918,2.10527 0.04348,0.33431 0.128714,0.67426 0.111964,1.01371 -0.02246,0.4551 -0.105757,0.92707 -0.0053,1.37946 0.05172,0.233 0.210786,0.43142 0.319897,0.63873 0.299545,0.56914 0.635241,1.16846 0.879713,1.76334 0.187606,0.45651 0.2173,0.97452 0.357217,1.44557 0.04184,0.14087 0.183822,0.22901 0.245253,0.36007 0.297492,0.63464 0.557559,1.27785 0.885047,1.90444 0.453175,0.86708 0.653026,1.83297 1.151625,2.67504 0.02397,0.0405 0.05539,0.2059 0.08531,0.22784 0.252899,0.18546 0.623879,0.27142 0.906372,0.42297 0.879642,0.47194 1.786681,1.16439 2.116646,2.13229 0.01815,0.0532 0.123851,0.27844 0.101301,0.33269 -0.06287,0.15123 -0.131514,0.29999 -0.197268,0.44999 z"
         id="path12" /><path
         style="opacity:1;fill:#37c871;stroke:none;stroke-width:1.165"
         d="m 95.271789,133.67548 c 1.428854,-1.57245 4.160316,-2.16406 7.866961,-2.20966 3.06751,0.16458 3.68158,0.66448 3.51684,2.48934 0.0505,1.79064 -0.38921,3.18505 -1.05763,4.86099 -0.81178,1.65058 -2.45375,1.97489 -4.03141,2.17719 -1.11383,-0.007 -2.721549,0.72323 -3.648026,-0.28256 -1.40104,-1.11702 -2.111671,-2.68025 -2.730144,-4.08544 -0.147584,-0.85611 -0.378683,-2.11183 0.08341,-2.94986 z"
         id="path14"
         sodipodi:nodetypes="cccccccc" /><path
         style="opacity:1;fill:#afdde9;stroke:none;stroke-width:1.165"
         d="m 110.97228,132.28767 c -0.12731,-1.83067 5.69816,-1.97164 8.56499,-1.75873 1.56928,0.13753 2.79363,0.67774 2.63241,3.19195 -0.0568,2.97836 -0.10204,3.85765 -1.67001,5.00953 -1.10216,0.60849 -2.50623,0.63865 -3.70241,0.81888 -1.62302,0.0588 -3.02358,-0.29061 -4.08126,-1.83353 -0.88745,-1.34181 -1.16219,-2.50397 -1.62502,-3.72128 z"
         id="path15"
         sodipodi:nodetypes="sccccccs" /><path
         style="fill:#333333;stroke:none;stroke-width:0.1"
         d="m 107.40879,192.98697 c 0,0 12.81984,5.00999 21.6863,4.46382 9.66142,-0.59513 21.37812,-3.03687 25.23494,-1.09255 6.59491,3.32467 7.43652,5.56639 12.3994,14.48229 4.07549,7.32167 5.06452,-10.74637 -6.43264,-19.7526 -5.03982,-3.94791 -10.39073,-6.80794 -27.54662,-4.64985 -8.51485,1.0711 -22.82025,-4.72167 -23.35487,-6.4621 -0.53465,-1.74043 -1.98651,13.01099 -1.98651,13.01099 z"
         id="path25"
         sodipodi:nodetypes="cssssssc" /><path
         style="fill:#333333;stroke:none;stroke-width:0.1"
         d="m 130.21484,184.60155 c 0,0 4.40308,-13.04075 10.52097,-19.48154 6.66642,-7.01827 16.06855,-14.42389 17.05839,-18.62813 1.69257,-7.18898 0.51637,-9.27469 -3.12314,-18.80765 -2.98874,-7.82841 11.48748,3.02844 10.99584,17.62485 -0.21551,6.39839 -1.46433,12.33576 -14.14559,24.09024 -6.29398,5.83401 -11.05238,20.51591 -10.06284,22.04423 0.98952,1.52833 -11.24363,-6.842 -11.24363,-6.842 z"
         id="path7"
         sodipodi:nodetypes="cssssssc" /><path
         style="opacity:1;fill:#1c241f;stroke:none;stroke-width:1.165"
         d="m 68.322492,188.42694 c 2.881536,-2.99093 2.276564,-7.80671 5.324937,-10.66214 3.014226,-3.88074 7.007226,-6.77104 11.166631,-9.30303 3.152352,-2.79271 6.601728,-5.18543 10.284027,-7.28003 0.988326,-1.0206 4.102714,-0.85844 1.530301,0.31202 -2.12094,0.97104 -7.282657,2.64218 -3.128868,5.16223 3.629766,1.70069 5.200273,5.9937 9.46281,6.42009 4.37785,0.26413 8.72664,1.2397 13.145,0.79075 4.52283,0.31603 7.04336,-4.11834 6.3111,-8.01642 -0.0965,-3.88959 -0.98514,-6.4406 -0.40132,-8.45125 6.54108,1.96253 14.27667,4.69429 20.61716,7.23459 3.71675,1.54775 4.08272,5.91154 5.88333,9.0466 1.52573,3.96031 1.81041,8.35965 3.56605,12.2026 2.34161,4.0875 -3.8976,5.68291 -6.89282,5.9497 -9.59445,1.45772 -13.00235,16.07901 -22.46949,19.22128 -3.66324,1.13391 -12.34733,0.0719 -16.27383,-0.3087 -6.479975,-0.2627 -12.110917,-9.27182 -18.544607,-7.43736 -4.929862,1.0621 -12.788024,-7.31633 -17.415974,-10.38537 -1.394792,-0.95005 -3.162663,-2.66302 -2.164797,-4.49552 z"
         id="path16"
         sodipodi:nodetypes="scccccccccccccccccss" /><path
         style="opacity:0.35345;fill:#4d4d4d;stroke:none;stroke-width:1.165"
         d="m 98.49728,153.77992 c 2.0355,0.99473 5.19803,2.64708 7.46717,3.00011 2.82819,0.34186 5.63971,0.38627 8.4215,-0.21554 2.14174,-0.63949 4.35129,-1.16624 5.89192,-2.16719 -1.64217,2.21546 -5.90968,3.14901 -6.54935,4.03662 -0.57648,1.44411 0.93672,2.64728 1.03722,4.07513 0.28963,0.96661 -3.33188,1.36915 -3.02228,2.32958 0.31518,0.97774 4.15048,-0.34918 4.3794,0.6516 0.183,0.57256 -0.82223,1.69909 -2.61331,3.30364 -0.51135,0.4581 3.53802,0.0173 3.00558,0.66444 -1.16209,1.06534 -4.19259,0.22029 -4.88604,-0.97795 -0.58333,-0.80922 3.91369,-1.27352 3.18046,-1.97255 -0.79521,-0.75811 -4.24899,0.47122 -5.31288,-0.34527 -0.9651,-0.73431 -2.8675,-1.60226 -3.71727,-0.51044 -1.23184,1.6683 -1.82269,3.8219 -3.46189,5.19203 -1.18903,1.11619 -3.125987,1.12903 -4.365432,0.0859 -1.480138,-1.12749 -2.461813,-2.85897 -4.234208,-3.60471 -1.415222,-0.60031 -2.258818,-2.67833 -1.242313,-3.76993 0.921752,-0.96985 2.486016,-1.30841 3.586114,-2.03575 1.441753,-0.78853 2.941532,-0.60102 3.020013,-2.05374 0.07133,-1.31285 0.07155,-3.72028 -0.584404,-5.68598 z"
         id="path17"
         sodipodi:nodetypes="ccccccscsccsccccccccc" /><path
         style="opacity:0.455878;fill:#333333;stroke:none;stroke-width:1.165"
         d="m 105.4576,139.53292 c 0.8997,0.33345 1.271,0.75223 1.42506,1.6201 0.002,0.014 0.0432,0.28853 0.0603,0.28853 0.15595,0 -0.0226,-1.53439 -0.0226,-1.68394 0,-1.24296 0.14236,-2.45686 0.377,-3.67701 0.0772,-0.40144 0.1472,-0.81221 0.24129,-1.20892 0.058,-0.24467 0.10881,-0.50798 0.21111,-0.73792 0.12703,-0.28549 0.2452,-0.58519 0.35439,-0.87816 0.71411,-1.91621 1.99703,2.07455 2.78226,2.20169 0.32553,0.0527 0.41443,-2.04927 0.3016,-2.36707 -0.39617,-1.11591 -2.8657,-2.15487 -3.70968,-1.09833 -0.80934,1.01318 -0.76414,2.5395 -1.00283,3.74488 -0.25905,1.30823 -0.96653,2.44792 -1.0179,3.79615 z"
         id="path22" /><path
         style="opacity:0.464077;fill:#4d4d4d;stroke:none;stroke-width:1.165"
         d="m 103.48312,141.16559 c 0.0377,0.73764 0.0846,1.51826 -0.27521,2.19263 -0.29034,0.54412 -0.656,1.03181 -0.92742,1.5819 -0.0233,0.0471 -0.11991,0.16901 -0.083,0.23123 0.001,0.002 0.18521,-0.12129 0.36193,-0.18448 0.21995,-0.0786 0.46759,-0.069 0.68991,-0.15055 0.28101,-0.10304 0.50968,-0.31211 0.77662,-0.44335 0.81015,-0.39832 1.65861,-0.49318 2.54853,-0.38379 0.43474,0.0534 0.95585,0.27466 1.39867,0.19101 0.2929,-0.0553 0.43802,-0.36692 0.69745,-0.49211 0.54044,-0.26078 1.17004,-0.36829 1.75683,-0.46446 0.61113,-0.10016 1.11013,-0.37036 1.67388,-0.59365 0.31514,-0.12483 0.654,-0.1709 0.97644,-0.27371 0.20252,-0.0646 0.38734,-0.17538 0.58812,-0.24379 0.19549,-0.0666 0.77075,-0.28615 0.49764,-0.59365 -0.30128,-0.33922 -0.91537,0.21922 -1.23656,0.32221 -0.76756,0.2461 -0.87881,0.0513 -1.59095,0.5939 -0.20184,0.15379 -0.36543,0.32818 -0.59943,0.44109 -0.26122,0.12605 -0.53876,0.21375 -0.79924,0.34332 -0.42636,0.21209 -0.82078,0.579 -1.33082,0.29281 -0.46479,-0.2608 -0.32404,-0.87188 -1.14231,-1.04128 -0.83409,-0.17267 -2.41442,0.58333 -3.04617,0.22696 -0.42177,-0.23793 -0.48552,-0.59055 -0.59943,-1.02645 -0.0173,-0.0663 -0.0207,-0.17418 -0.0679,-0.22897 -0.0869,-0.10099 -0.17845,-0.19788 -0.26767,-0.29682 z"
         id="path18" /><path
         style="opacity:0.256008;fill:#aa4400;stroke:none;stroke-width:1.165"
         d="m 104.50102,146.56047 c 1.77061,-1.41081 4.03905,-2.15568 6.29707,-2.14851 1.21516,-0.5308 2.66089,-0.54403 3.86588,0.0235 1.09627,0.32692 2.26926,0.37172 3.39324,0.17041 -0.78414,1.19799 -1.61309,2.43689 -2.84687,3.21616 -1.90433,0.18361 -3.75093,0.78417 -5.66588,0.86829 -1.59349,0.0182 -3.19826,-0.38819 -4.56666,-1.21131 -0.38751,-0.18311 -1.26319,-0.15546 -1.26546,-0.62591 0.2175,-0.20065 0.54536,-0.14393 0.78868,-0.29263 z"
         id="path21" /><path
         style="opacity:0.455878;fill:#4d4d4d;stroke:none;stroke-width:1.165"
         d="m 101.70864,146.36493 c -0.46628,1.32394 0.11723,1.48059 0.60477,1.84153 0.28329,0.3564 0.27436,0.44352 0.21866,0.49613 -0.10374,0.098 -0.74912,-0.24089 -0.88218,-0.28451 -1.826115,-0.59856 -1.0968,-4.06694 -0.0679,-3.52873 0.2754,0.14405 0.35945,0.56089 0.61828,0.75501 0.6182,0.46365 1.08317,1.16992 1.83273,1.1949 1.14181,0.0381 3.63513,-0.28594 4.71955,-0.61784 0.38944,-0.11919 0.95459,-0.29472 1.3633,-0.33729 1.81553,-0.18912 3.33437,0.19585 5.17673,-0.43191 0.67054,-0.22849 1.34613,-0.0917 1.96882,-0.41866 0.35259,-0.18511 0.68992,-0.37715 1.06365,-0.49639 0.20177,-0.0644 0.43452,-0.93018 0.31574,-1.14489 -0.51267,-0.9267 -2.12629,-0.88816 -2.61966,-1.53502 -0.12116,-0.15886 -0.34172,-0.9678 -0.0151,-0.94602 0.25779,0.0172 0.97927,0.40205 1.23656,0.52579 1.40316,0.67485 1.62901,1.22391 2.10518,2.76882 0.14771,0.47926 0.85805,0.91666 0.85805,1.42192 0,0.25193 -0.15288,0.94313 -0.53534,0.70374 -0.25821,-0.16162 -0.51235,-0.45477 -0.62582,-0.73792 -0.0425,-0.10595 -0.16696,-0.78853 -0.2639,-0.82287 -0.2442,-0.0865 -0.59995,0.006 -0.74327,0.15439 -0.56953,0.59122 -1.76016,0.857 -2.47632,0.99069 -1.74532,0.32579 -3.13938,0.0305 -4.92427,0.11844 -0.76296,0.0376 -1.6487,0.5427 -2.38956,0.73409 -0.83082,0.21463 -1.98128,0.38409 -2.839,0.44127 -0.79744,0.0532 -1.44853,0.15291 -2.16003,-0.2206 -0.14755,-0.0775 -0.49848,-0.53394 -1.13257,-0.6558"
         id="path23"
         sodipodi:nodetypes="ccscsscsssssssssssssssssscsc" /><path
         style="opacity:1;fill:#1a1a1a;stroke:none;stroke-width:1.165"
         d="m 99.527117,136.99014 c -0.767094,-0.16961 -1.645648,-0.16518 -1.914044,-1.04357 -0.08268,-0.27059 -0.06509,-0.61277 0.05865,-0.86976 0.419711,-0.87172 1.594625,-0.0836 2.23394,-0.18306 0.422547,-0.0657 0.143497,-0.97119 0.751757,-1.21774 0.16294,-0.066 0.34898,-0.10044 0.52249,-0.0537 0.95829,0.25832 0.27791,1.61496 0.86372,1.54119 0.65106,-0.082 0.73964,-0.96844 1.3329,-1.19037 0.7079,-0.2648 1.33274,0.57357 1.30091,1.19961 -0.023,0.45333 -1.29604,1.08795 -1.62614,1.6073 -0.19881,0.3128 0.55902,0.86971 0.064,1.49676 -0.0611,0.0773 -0.14682,0.18985 -0.25058,0.21291 -0.60662,0.13481 -1.19236,-0.74915 -1.54084,-0.5879 -0.61928,0.28657 -0.38754,1.06121 -0.83706,1.44558 -0.53362,0.45629 -1.644357,-0.39239 -1.578148,-1.0258 0.03545,-0.33918 0.571638,-0.80178 0.581145,-0.88469 0.01704,-0.14848 0.02487,-0.29786 0.03732,-0.44679 z"
         id="path26" /><path
         style="opacity:1;fill:#1a1a1a;stroke:none;stroke-width:1.165"
         d="m 115.03674,135.47241 c -0.31812,-0.49679 -0.7715,-0.9295 -0.95436,-1.49036 -0.21736,-0.66669 0.62691,-1.30242 1.19961,-1.27745 0.68034,0.0297 0.74989,1.34182 1.46086,1.23231 0.18724,-0.0288 0.45351,-1.09064 0.8424,-1.38231 0.45204,-0.33903 1.77133,-0.55271 1.88738,0.27902 0.12307,0.882 -1.43351,1.11934 -1.19428,1.7573 0.0809,0.21562 1.47642,0.25848 1.81275,1.16655 0.0881,0.23786 0.0649,0.5256 -0.0906,0.7347 -0.12056,0.16209 -0.31971,0.28295 -0.50117,0.3629 -0.91184,0.40174 -1.31594,-1.42294 -2.09532,-0.70164 -0.61638,0.57046 0.0329,1.8957 -0.91703,2.27304 -0.76582,0.3042 -2.14484,-0.42789 -2.23394,-1.28029 -0.0697,-0.66677 0.40117,-1.19823 0.78374,-1.67377 z"
         id="path27" /><path
         style="fill:#b7c8be;stroke:none;stroke-width:0.97191"
         d="m 79.644414,174.96937 c 6.214812,4.21935 9.525165,7.8241 10.084357,15.26518 0.428855,5.13525 5.764784,14.42052 5.308544,9.43676 -1.180173,-6.86996 0.683449,-8.27961 6.585645,-3.79011 1.16864,2.47375 6.05119,3.86888 4.66541,-0.3518 -1.39272,-6.01261 -15.263672,-3.4377 -9.901791,-11.89408 5.157281,-5.81931 1.089329,-13.24799 -5.900895,-14.35455 -3.690649,-0.63894 -9.012631,1.9566 -10.84127,5.68859 z"
         id="path4"
         sodipodi:nodetypes="cccccccsc" /><path
         style="fill:#1c241f;stroke:none;stroke-width:1.165"
         d="m 83.516597,174.01235 c 2.460047,-1.34845 5.200051,-3.46729 8.114697,-2.15894 0.35406,0.15894 0.743704,0.43031 0.991677,0.72581 0.277051,0.33015 0.691502,0.6497 1.00234,0.98315 0.878763,0.94267 0.941403,2.36413 1.247595,3.54515 0.545367,2.10357 0.561469,4.32672 -0.511834,6.30978 -0.389234,0.71915 -1.218465,2.5885 -2.292588,2.45324 -0.935257,-0.11777 -2.606175,-3.3816 -3.145644,-4.22262 -0.65795,-1.02573 -1.600202,-1.82564 -2.324578,-2.79518 -1.143186,-1.53011 -2.029131,-3.24989 -3.081665,-4.84039 z"
         id="path8" /><path
         style="opacity:1;fill:#1a1a1a;stroke:none;stroke-width:1.165"
         d="m 85.029429,160.16625 c -0.767094,-0.16961 -1.645648,-0.16518 -1.914044,-1.04357 -0.08268,-0.27059 -0.06509,-0.61277 0.05865,-0.86976 0.419711,-0.87172 1.594625,-0.0836 2.23394,-0.18306 0.42255,-0.0657 0.143497,-0.97119 0.751758,-1.21774 0.16294,-0.066 0.34898,-0.10044 0.52249,-0.0537 0.95829,0.25832 0.27791,1.61496 0.86372,1.54119 0.65106,-0.082 0.73964,-0.96844 1.3329,-1.19037 0.7079,-0.2648 1.33274,0.57357 1.30091,1.19961 -0.023,0.45333 -1.29604,1.08795 -1.62614,1.6073 -0.19881,0.3128 0.55902,0.86971 0.064,1.49676 -0.0611,0.0773 -0.14682,0.18985 -0.25058,0.21291 -0.60662,0.13481 -1.19236,-0.74915 -1.54084,-0.5879 -0.61928,0.28657 -0.38754,1.06121 -0.83706,1.44558 -0.533621,0.45629 -1.644358,-0.39239 -1.578149,-1.0258 0.03545,-0.33918 0.571638,-0.80178 0.581145,-0.88469 0.01704,-0.14848 0.02487,-0.29786 0.03732,-0.44679 z"
         id="path20" /></g><text
       xml:space="preserve"
       style="font-size:15.6884px;font-family:Chilanka;-inkscape-font-specification:Chilanka;fill:#333333;stroke:none;stroke-width:0.0308826"
       x="17.667507"
       y="212.95311"
       id="text28"
       transform="matrix(0.88269682,-0.44299981,0.43373909,0.9152108,0,0)"><tspan
         sodipodi:role="line"
         id="tspan28"
         style="font-style:normal;font-variant:normal;font-weight:normal;font-stretch:normal;font-family:Dyuthi;-inkscape-font-specification:Dyuthi;fill:#f9f9f9;stroke:none;stroke-width:0.0308826"
         x="17.667507"
         y="212.95311">SCI-FI</tspan></text><text
       xml:space="preserve"
       style="font-style:normal;font-variant:normal;font-weight:normal;font-stretch:normal;font-size:14.9552px;font-family:Dyuthi;-inkscape-font-specification:Dyuthi;opacity:1;fill:#f9f9f9;stroke:none;stroke-width:0.0294391"
       x="98.622185"
       y="209.4642"
       id="text29"
       transform="scale(1.0871635,0.91982483)"><tspan
         sodipodi:role="line"
         id="tspan29"
         style="stroke:none;stroke-width:0.0294391"
         x="98.622185"
         y="209.4642">LIFE</tspan></text><g
       inkscape:label="Layer 1"
       id="layer1-5"
       transform="matrix(0.21862968,0,0,0.21862968,36.363407,168.83966)" /></g></svg>
